<svg width="599" height="599" viewBox="0 0 599 599" fill="none" xmlns="http://www.w3.org/2000/svg">
<path d="M314.259 144.563H252.79V65.6504H298.434L314.259 80.6853V144.563Z" fill="#EBEBEB"/>
<path d="M298.434 65.6504L314.259 80.6853H298.434V65.6504Z" fill="#DBDBDB"/>
<path d="M258.792 80.9249H292.971V78.9003H258.792V80.9249Z" fill="#DBDBDB"/>
<path d="M258.792 86.0403H292.971V84.0157H258.792V86.0403Z" fill="#DBDBDB"/>
<path d="M258.792 91.1558H292.971V89.1312H258.792V91.1558Z" fill="#DBDBDB"/>
<path d="M258.792 96.2713H308.868V94.2467H258.792V96.2713Z" fill="#DBDBDB"/>
<path d="M258.792 101.387H308.868V99.3621H258.792V101.387Z" fill="#DBDBDB"/>
<path d="M258.792 106.49H308.868V104.466H258.792V106.49Z" fill="#DBDBDB"/>
<path d="M258.792 111.606H308.868V109.581H258.792V111.606Z" fill="#DBDBDB"/>
<path d="M258.792 116.721H308.868V114.697H258.792V116.721Z" fill="#DBDBDB"/>
<path d="M258.792 121.837H308.868V119.812H258.792V121.837Z" fill="#DBDBDB"/>
<path d="M258.792 126.952H308.868V124.927H258.792V126.952Z" fill="#DBDBDB"/>
<path d="M258.792 132.068H308.868V130.043H258.792V132.068Z" fill="#DBDBDB"/>
<path d="M258.792 137.183H308.868V135.158H258.792V137.183Z" fill="#DBDBDB"/>
<path d="M318.416 151.75C323.912 149.459 326.51 143.145 324.219 137.649C321.927 132.153 315.614 129.555 310.118 131.846C304.622 134.137 302.024 140.45 304.315 145.947C306.606 151.443 312.919 154.041 318.416 151.75Z" fill="#C7C7C7"/>
<path d="M319.602 139.064H308.916V148.768H319.602V139.064Z" fill="white"/>
<path d="M318.536 142.059H317.47V137.77C317.497 137.334 317.434 136.898 317.286 136.487C317.137 136.077 316.907 135.701 316.607 135.383C316.308 135.065 315.947 134.811 315.547 134.638C315.146 134.465 314.714 134.376 314.277 134.376C313.841 134.376 313.409 134.465 313.008 134.638C312.608 134.811 312.247 135.065 311.948 135.383C311.648 135.701 311.418 136.077 311.269 136.487C311.121 136.898 311.058 137.334 311.085 137.77V142.095H309.995V137.77C309.995 136.636 310.445 135.548 311.247 134.746C312.049 133.944 313.137 133.493 314.271 133.493C315.406 133.493 316.494 133.944 317.296 134.746C318.098 135.548 318.548 136.636 318.548 137.77L318.536 142.059Z" fill="white"/>
<path d="M314.715 144.036L315.158 146.156H313.265L313.708 144.036C313.573 143.949 313.462 143.831 313.385 143.691C313.307 143.55 313.266 143.393 313.265 143.233C313.265 142.982 313.365 142.741 313.542 142.564C313.72 142.386 313.961 142.286 314.212 142.286C314.463 142.286 314.703 142.386 314.881 142.564C315.058 142.741 315.158 142.982 315.158 143.233C315.157 143.393 315.116 143.55 315.039 143.691C314.961 143.831 314.85 143.949 314.715 144.036Z" fill="#C7C7C7"/>
<path d="M394.262 176.681L394.418 238.079C394.421 238.895 394.263 239.704 393.953 240.46C393.644 241.215 393.189 241.902 392.613 242.482C392.038 243.062 391.355 243.522 390.601 243.838C389.848 244.153 389.04 244.317 388.224 244.32L290.85 244.572C290.034 244.573 289.225 244.414 288.47 244.103C287.715 243.792 287.029 243.335 286.45 242.759C285.872 242.183 285.413 241.498 285.099 240.744C284.785 239.991 284.622 239.183 284.621 238.366L284.465 176.969C284.462 176.209 284.609 175.457 284.897 174.754C285.185 174.052 285.608 173.413 286.144 172.874C286.679 172.336 287.315 171.908 288.016 171.615C288.717 171.323 289.468 171.172 290.228 171.17L388.464 170.919C389.223 170.915 389.975 171.062 390.678 171.35C391.38 171.638 392.019 172.062 392.558 172.597C393.096 173.132 393.524 173.769 393.817 174.469C394.109 175.17 394.26 175.922 394.262 176.681Z" fill="#EBEBEB"/>
<path d="M378.568 229.477C378.57 230.607 378.238 231.713 377.612 232.654C376.986 233.595 376.095 234.329 375.052 234.764C374.008 235.198 372.859 235.314 371.751 235.096C370.642 234.878 369.622 234.336 368.821 233.538C368.021 232.741 367.474 231.723 367.251 230.615C367.028 229.507 367.139 228.358 367.57 227.313C368 226.268 368.73 225.374 369.669 224.744C370.607 224.114 371.711 223.777 372.842 223.774C373.592 223.773 374.335 223.919 375.029 224.205C375.723 224.491 376.354 224.91 376.886 225.44C377.418 225.969 377.84 226.598 378.129 227.291C378.417 227.984 378.567 228.726 378.568 229.477Z" fill="#DBDBDB"/>
<path d="M385.612 229.453C385.615 230.583 385.282 231.688 384.657 232.628C384.031 233.569 383.141 234.304 382.098 234.739C381.056 235.174 379.908 235.29 378.799 235.073C377.691 234.855 376.671 234.315 375.87 233.518C375.068 232.722 374.521 231.706 374.297 230.599C374.073 229.492 374.182 228.343 374.61 227.297C375.039 226.252 375.768 225.357 376.704 224.726C377.641 224.095 378.744 223.755 379.874 223.75C380.625 223.747 381.37 223.892 382.065 224.177C382.761 224.462 383.393 224.882 383.926 225.411C384.459 225.941 384.882 226.571 385.172 227.264C385.461 227.958 385.611 228.701 385.612 229.453Z" fill="#2563EB"/>
<path d="M309.271 181.657L298.729 181.685C295.95 181.692 293.703 183.951 293.71 186.729L293.721 190.91C293.729 193.689 295.987 195.936 298.766 195.929L309.309 195.901C312.087 195.894 314.334 193.635 314.327 190.856L314.316 186.675C314.309 183.897 312.05 181.65 309.271 181.657Z" fill="#2563EB"/>
<path d="M381.599 189.284H372.279C371.765 189.286 371.256 189.186 370.78 188.99C370.305 188.795 369.873 188.507 369.509 188.144C369.145 187.782 368.857 187.35 368.66 186.876C368.462 186.401 368.361 185.892 368.361 185.379C368.36 184.866 368.459 184.359 368.654 183.885C368.849 183.411 369.136 182.98 369.497 182.618C369.859 182.255 370.289 181.967 370.762 181.771C371.235 181.574 371.742 181.473 372.255 181.473H381.575C382.088 181.47 382.597 181.568 383.072 181.763C383.548 181.957 383.98 182.243 384.344 182.605C384.708 182.967 384.997 183.397 385.194 183.871C385.391 184.345 385.492 184.853 385.492 185.367C385.494 185.879 385.395 186.388 385.2 186.862C385.005 187.336 384.719 187.768 384.357 188.132C383.996 188.495 383.566 188.784 383.093 188.982C382.619 189.18 382.112 189.282 381.599 189.284Z" fill="white"/>
<path d="M345.946 224.413L293.809 224.55L293.816 227.114L345.953 226.977L345.946 224.413Z" fill="#DBDBDB"/>
<path d="M330.746 230.156L293.836 230.252L293.843 232.816L330.753 232.719L330.746 230.156Z" fill="#DBDBDB"/>
<path d="M364.774 181.512L338.766 181.58L338.772 184.144L364.781 184.076L364.774 181.512Z" fill="#DBDBDB"/>
<path d="M296.122 210.776H295.762V214.67H296.122V210.776Z" fill="#C7C7C7"/>
<path d="M297.883 212.549H293.989V212.909H297.883V212.549Z" fill="#C7C7C7"/>
<path d="M297.193 211.214L294.431 213.976L294.685 214.23L297.447 211.468L297.193 211.214Z" fill="#C7C7C7"/>
<path d="M294.697 211.226L294.443 211.48L297.205 214.242L297.459 213.988L294.697 211.226Z" fill="#C7C7C7"/>
<path d="M300.806 210.776H300.447V214.67H300.806V210.776Z" fill="#C7C7C7"/>
<path d="M302.579 212.549H298.686V212.909H302.579V212.549Z" fill="#C7C7C7"/>
<path d="M301.883 211.22L299.13 213.974L299.384 214.228L302.137 211.475L301.883 211.22Z" fill="#C7C7C7"/>
<path d="M299.374 211.212L299.12 211.466L301.873 214.219L302.127 213.965L299.374 211.212Z" fill="#C7C7C7"/>
<path d="M305.502 210.776H305.143V214.67H305.502V210.776Z" fill="#C7C7C7"/>
<path d="M307.263 212.549H303.37V212.909H307.263V212.549Z" fill="#C7C7C7"/>
<path d="M304.065 214.226L303.813 213.975L306.568 211.219L306.832 211.471L304.065 214.226Z" fill="#C7C7C7"/>
<path d="M306.568 214.226L303.813 211.471L304.065 211.219L306.832 213.975L306.568 214.226Z" fill="#C7C7C7"/>
<path d="M310.186 210.776H309.827V214.67H310.186V210.776Z" fill="#C7C7C7"/>
<path d="M311.959 212.549H308.066V212.909H311.959V212.549Z" fill="#C7C7C7"/>
<path d="M308.761 214.226L308.509 213.975L311.264 211.219L311.516 211.471L308.761 214.226Z" fill="#C7C7C7"/>
<path d="M311.264 214.226L308.509 211.471L308.761 211.219L311.516 213.975L311.264 214.226Z" fill="#C7C7C7"/>
<path d="M320.429 210.776H320.07V214.67H320.429V210.776Z" fill="#C7C7C7"/>
<path d="M322.19 212.549H318.297V212.909H322.19V212.549Z" fill="#C7C7C7"/>
<path d="M319.004 214.226L318.74 213.975L321.495 211.219L321.759 211.471L319.004 214.226Z" fill="#C7C7C7"/>
<path d="M321.495 214.226L318.74 211.471L319.004 211.219L321.759 213.975L321.495 214.226Z" fill="#C7C7C7"/>
<path d="M325.113 210.776H324.754V214.67H325.113V210.776Z" fill="#C7C7C7"/>
<path d="M326.886 212.549H322.993V212.909H326.886V212.549Z" fill="#C7C7C7"/>
<path d="M323.688 214.226L323.436 213.975L326.191 211.219L326.443 211.471L323.688 214.226Z" fill="#C7C7C7"/>
<path d="M326.191 214.226L323.436 211.471L323.688 211.219L326.443 213.975L326.191 214.226Z" fill="#C7C7C7"/>
<path d="M329.81 210.776H329.45V214.67H329.81V210.776Z" fill="#C7C7C7"/>
<path d="M331.571 212.549H327.677V212.909H331.571V212.549Z" fill="#C7C7C7"/>
<path d="M328.384 214.226L328.12 213.975L330.876 211.219L331.139 211.471L328.384 214.226Z" fill="#C7C7C7"/>
<path d="M330.876 214.226L328.12 211.471L328.384 211.219L331.139 213.975L330.876 214.226Z" fill="#C7C7C7"/>
<path d="M334.506 210.776H334.146V214.67H334.506V210.776Z" fill="#C7C7C7"/>
<path d="M336.267 212.549H332.373V212.909H336.267V212.549Z" fill="#C7C7C7"/>
<path d="M333.068 214.226L332.816 213.975L335.572 211.219L335.823 211.471L333.068 214.226Z" fill="#C7C7C7"/>
<path d="M335.572 214.226L332.816 211.471L333.068 211.219L335.823 213.975L335.572 214.226Z" fill="#C7C7C7"/>
<path d="M344.737 210.776H344.377V214.67H344.737V210.776Z" fill="#C7C7C7"/>
<path d="M346.51 212.549H342.616V212.909H346.51V212.549Z" fill="#C7C7C7"/>
<path d="M343.311 214.226L343.059 213.975L345.815 211.219L346.066 211.471L343.311 214.226Z" fill="#C7C7C7"/>
<path d="M345.815 214.226L343.059 211.471L343.311 211.219L346.066 213.975L345.815 214.226Z" fill="#C7C7C7"/>
<path d="M349.433 210.776H349.073V214.67H349.433V210.776Z" fill="#C7C7C7"/>
<path d="M351.194 212.549H347.3V212.909H351.194V212.549Z" fill="#C7C7C7"/>
<path d="M347.995 214.226L347.744 213.975L350.499 211.219L350.763 211.471L347.995 214.226Z" fill="#C7C7C7"/>
<path d="M350.499 214.226L347.744 211.471L347.995 211.219L350.763 213.975L350.499 214.226Z" fill="#C7C7C7"/>
<path d="M354.117 210.776H353.758V214.67H354.117V210.776Z" fill="#C7C7C7"/>
<path d="M355.89 212.549H351.997V212.909H355.89V212.549Z" fill="#C7C7C7"/>
<path d="M352.691 214.226L352.44 213.975L355.195 211.219L355.447 211.471L352.691 214.226Z" fill="#C7C7C7"/>
<path d="M355.195 214.226L352.44 211.471L352.691 211.219L355.447 213.975L355.195 214.226Z" fill="#C7C7C7"/>
<path d="M358.813 210.776H358.454V214.67H358.813V210.776Z" fill="#C7C7C7"/>
<path d="M360.574 212.549H356.681V212.909H360.574V212.549Z" fill="#C7C7C7"/>
<path d="M357.376 214.226L357.124 213.975L359.879 211.219L360.143 211.471L357.376 214.226Z" fill="#C7C7C7"/>
<path d="M359.879 214.226L357.124 211.471L357.376 211.219L360.143 213.975L359.879 214.226Z" fill="#C7C7C7"/>
<path d="M369.044 210.776H368.685V214.67H369.044V210.776Z" fill="#C7C7C7"/>
<path d="M370.817 212.549H366.924V212.909H370.817V212.549Z" fill="#C7C7C7"/>
<path d="M367.618 214.226L367.367 213.975L370.122 211.219L370.374 211.471L367.618 214.226Z" fill="#C7C7C7"/>
<path d="M370.122 214.226L367.367 211.471L367.618 211.219L370.374 213.975L370.122 214.226Z" fill="#C7C7C7"/>
<path d="M373.74 210.776H373.381V214.67H373.74V210.776Z" fill="#C7C7C7"/>
<path d="M375.501 212.549H371.608V212.909H375.501V212.549Z" fill="#C7C7C7"/>
<path d="M372.315 214.226L372.051 213.975L374.818 211.219L375.07 211.471L372.315 214.226Z" fill="#C7C7C7"/>
<path d="M374.818 214.226L372.051 211.471L372.315 211.219L375.07 213.975L374.818 214.226Z" fill="#C7C7C7"/>
<path d="M378.436 210.776H378.077V214.67H378.436V210.776Z" fill="#C7C7C7"/>
<path d="M380.197 212.549H376.304V212.909H380.197V212.549Z" fill="#C7C7C7"/>
<path d="M376.999 214.226L376.747 213.975L379.502 211.219L379.754 211.471L376.999 214.226Z" fill="#C7C7C7"/>
<path d="M379.502 214.226L376.747 211.471L376.999 211.219L379.754 213.975L379.502 214.226Z" fill="#C7C7C7"/>
<path d="M383.121 210.776H382.761V214.67H383.121V210.776Z" fill="#C7C7C7"/>
<path d="M384.882 212.549H380.988V212.909H384.882V212.549Z" fill="#C7C7C7"/>
<path d="M381.695 214.226L381.431 213.975L384.187 211.219L384.45 211.471L381.695 214.226Z" fill="#C7C7C7"/>
<path d="M384.187 214.226L381.431 211.471L381.695 211.219L384.45 213.975L384.187 214.226Z" fill="#C7C7C7"/>
<path d="M405.035 245.98C405.991 240.103 402.001 234.563 396.124 233.607C390.246 232.651 384.706 236.64 383.75 242.518C382.794 248.395 386.784 253.935 392.661 254.891C398.539 255.847 404.078 251.858 405.035 245.98Z" fill="#C7C7C7"/>
<path d="M399.761 241.541H389.074V251.245H399.761V241.541Z" fill="white"/>
<path d="M398.695 244.536H397.616V240.199C397.567 239.386 397.209 238.623 396.615 238.065C396.022 237.507 395.238 237.196 394.424 237.196C393.609 237.196 392.825 237.507 392.232 238.065C391.639 238.623 391.281 239.386 391.231 240.199V244.536H390.141V240.199C390.141 239.065 390.591 237.977 391.394 237.175C392.196 236.373 393.283 235.922 394.418 235.922C395.552 235.922 396.64 236.373 397.442 237.175C398.244 237.977 398.695 239.065 398.695 240.199V244.536Z" fill="white"/>
<path d="M394.873 246.512L395.316 248.633H393.423L393.867 246.512C393.732 246.426 393.62 246.308 393.543 246.168C393.465 246.027 393.424 245.87 393.423 245.71C393.423 245.459 393.523 245.218 393.701 245.041C393.878 244.863 394.119 244.763 394.37 244.763C394.621 244.763 394.862 244.863 395.039 245.041C395.216 245.218 395.316 245.459 395.316 245.71C395.315 245.87 395.274 246.027 395.197 246.168C395.119 246.308 395.008 246.426 394.873 246.512Z" fill="#C7C7C7"/>
<path d="M139.966 140.828L212.691 152.998L221.52 100.241L148.794 88.0711L139.966 140.828Z" fill="#EBEBEB"/>
<path d="M143.485 138.308L210.173 149.467L217.989 102.76L151.301 91.6002L143.485 138.308Z" fill="white"/>
<path d="M156.938 106.179C156.757 107.27 156.903 108.39 157.358 109.398C157.813 110.407 158.557 111.257 159.496 111.843C160.434 112.428 161.525 112.722 162.631 112.688C163.736 112.653 164.807 112.292 165.707 111.65C166.608 111.007 167.297 110.112 167.689 109.077C168.081 108.043 168.157 106.916 167.908 105.838C167.66 104.76 167.097 103.78 166.292 103.022C165.486 102.264 164.474 101.762 163.383 101.578C161.919 101.336 160.418 101.684 159.21 102.546C158.001 103.409 157.184 104.715 156.938 106.179Z" fill="#DBDBDB"/>
<path d="M174.788 133.206L211.878 139.423L197.538 111.174L174.788 133.206Z" fill="#DBDBDB"/>
<path d="M160.257 130.786L190.865 135.913L178.298 116.985L160.257 130.786Z" fill="#EBEBEB"/>
<path d="M211.88 139.395L145.192 128.235L143.508 138.302L210.195 149.462L211.88 139.395Z" fill="#EBEBEB"/>
<path d="M119.081 157.501H192.818V104.01H119.081V157.501Z" fill="#EBEBEB"/>
<path d="M122.136 154.422H189.751V107.065H122.136V154.422Z" fill="white"/>
<path d="M130.031 120.531C130.029 121.64 130.355 122.725 130.97 123.649C131.585 124.573 132.46 125.293 133.484 125.719C134.508 126.145 135.636 126.258 136.724 126.043C137.812 125.828 138.813 125.295 139.598 124.511C140.383 123.728 140.918 122.729 141.136 121.641C141.353 120.553 141.243 119.425 140.819 118.4C140.395 117.375 139.676 116.498 138.754 115.882C137.832 115.265 136.747 114.936 135.638 114.936C134.153 114.936 132.728 115.525 131.677 116.574C130.626 117.623 130.034 119.046 130.031 120.531Z" fill="#DBDBDB"/>
<path d="M152.158 144.239H189.763L170.955 118.746L152.158 144.239Z" fill="#DBDBDB"/>
<path d="M137.411 144.251H168.463L152.937 127.647L137.411 144.251Z" fill="#EBEBEB"/>
<path d="M189.751 144.227H122.136V154.434H189.751V144.227Z" fill="#EBEBEB"/>
<path d="M233.311 357.735H127.599V504.023H233.311V357.735Z" fill="#EBEBEB"/>
<path d="M238.438 352.308H122.484V357.735H238.438V352.308Z" fill="#DBDBDB"/>
<path d="M274.893 352.308H238.426V357.735H274.893V352.308Z" fill="#EBEBEB"/>
<path d="M269.131 357.735H233.311V504.023H269.131V357.735Z" fill="#DBDBDB"/>
<path d="M221.941 425.458H138.968V378.568H221.941V425.458ZM139.28 425.158H221.63V378.844H139.268L139.28 425.158Z" fill="#C7C7C7"/>
<path d="M185.031 392.261H168.882V401.546H185.031V392.261Z" fill="#C7C7C7"/>
<path d="M189.955 400.995H173.506V392.812H189.955V400.995ZM173.806 400.695H189.655V393.112H173.806V400.695Z" fill="#C7C7C7"/>
<path d="M221.941 484.351H138.968V437.438H221.941V484.351ZM139.28 484.052H221.63V437.737H139.268L139.28 484.052Z" fill="#C7C7C7"/>
<path d="M185.031 451.155H168.882V460.439H185.031V451.155Z" fill="#C7C7C7"/>
<path d="M189.955 459.888H173.506V451.706H189.955V459.888ZM173.806 459.589H189.655V452.005H173.806V459.589Z" fill="#C7C7C7"/>
<path d="M61.7449 504.07L121.19 503.771L180.622 503.675L299.5 503.471L418.377 503.663L477.81 503.771L537.255 504.07L477.81 504.358L418.377 504.466L299.5 504.669L180.622 504.466L121.19 504.358L61.7449 504.07Z" fill="#263238"/>
<path d="M123.754 556.639C153.051 556.639 176.801 552.08 176.801 546.456C176.801 540.832 153.051 536.273 123.754 536.273C94.4562 536.273 70.7061 540.832 70.7061 546.456C70.7061 552.08 94.4562 556.639 123.754 556.639Z" fill="#EBEBEB"/>
<path d="M321.028 565.983C435.505 565.983 528.306 556.881 528.306 545.653C528.306 534.425 435.505 525.323 321.028 525.323C206.552 525.323 113.75 534.425 113.75 545.653C113.75 556.881 206.552 565.983 321.028 565.983Z" fill="#EBEBEB"/>
<path d="M378.125 368.325L374.639 389.266L350.978 517.009H347.168L364.372 389.266L366.911 368.325H378.125Z" fill="#C7C7C7"/>
<path d="M366.912 368.325H378.125L374.639 389.266H364.372L366.912 368.325Z" fill="#A6A6A6"/>
<path d="M452.413 517.009H448.603L424.943 389.266L421.457 368.325H432.67L435.21 389.266L452.413 517.009Z" fill="#C7C7C7"/>
<path d="M432.67 368.325L435.21 389.266H424.943L421.457 368.325H432.67Z" fill="#A6A6A6"/>
<path d="M523.37 517.009H519.549L495.9 389.266L492.402 368.325H503.615L506.167 389.266L523.37 517.009Z" fill="#C7C7C7"/>
<path d="M506.167 389.266H495.9L492.402 368.325H503.615L506.167 389.266Z" fill="#A6A6A6"/>
<path d="M517.32 378.161H343.982V359.903H408.865L442.661 170.595H534.667L517.32 378.161Z" fill="#C7C7C7"/>
<path d="M516.578 359.903H343.982V378.161H517.224L516.578 359.903Z" fill="#DBDBDB"/>
<path d="M517.32 378.161H507.868L525.67 170.595H534.667L517.32 378.161Z" fill="#DBDBDB"/>
<path d="M519.465 144.095C516.793 141.16 505.855 132.954 496.403 128.521C491.827 126.329 478.002 121.453 476.037 124.844C474.072 128.234 478.014 130.019 478.014 130.019C478.014 130.019 471.856 128.821 470.215 132.415C468.574 136.009 474.743 138.585 474.743 138.585C474.743 138.585 468.346 137.83 466.956 141.52C465.567 145.21 472.216 146.767 472.216 146.767C472.216 146.767 466.393 145.809 466.537 149.331C466.705 153.572 477.631 154.123 482.578 156.818C483.704 157.417 504.478 170.727 504.478 170.727L519.465 144.095Z" fill="#EB9481"/>
<path d="M472.3 146.803C480.338 147.234 483.788 148.828 490.27 153.416C490.401 153.5 490.557 153.332 490.437 153.224C484.519 148.157 480.482 145.545 472.324 146.408C471.904 146.456 471.916 146.779 472.3 146.803Z" fill="#263238"/>
<path d="M474.408 138.405C482.722 139.603 486.472 141.268 493.576 145.593C493.684 145.593 493.792 145.485 493.696 145.413C487.059 140.621 482.986 138.093 474.528 138.01C474.18 137.986 474.061 138.345 474.408 138.405Z" fill="#263238"/>
<path d="M478.697 130.091C486.664 131.816 490.857 133.481 497.23 138.549C497.386 138.669 497.577 138.465 497.434 138.333C491.444 132.523 486.22 130.402 478.781 129.851C478.266 129.815 478.194 129.983 478.697 130.091Z" fill="#263238"/>
<path d="M507.952 175.231C507.952 175.231 497.937 173.95 493.66 172.416C489.383 170.883 475.606 159.334 477.918 156.195C480.925 152.158 490.222 157.261 494.45 160.352C494.45 160.352 501.399 151.008 508.826 153.224C516.254 155.441 507.952 175.231 507.952 175.231Z" fill="#EB9481"/>
<path d="M479.104 155.357C484.507 153.655 489.79 158.076 494.115 160.772C494.177 160.815 494.249 160.842 494.325 160.851C494.4 160.859 494.476 160.85 494.547 160.823C494.618 160.796 494.681 160.752 494.731 160.695C494.781 160.638 494.816 160.57 494.834 160.496C498.009 156.77 503.567 152.446 508.707 152.949C508.738 152.949 508.769 152.936 508.791 152.914C508.814 152.891 508.826 152.861 508.826 152.829C508.826 152.797 508.814 152.767 508.791 152.744C508.769 152.722 508.738 152.709 508.707 152.709C503.268 151.427 497.457 155.237 494.235 159.538C489.85 156.698 484.351 152.505 479.044 155.309C479.056 155.321 479.08 155.369 479.104 155.357Z" fill="#263238"/>
<path d="M423.289 133.96C426.883 132.367 440.84 128.126 451.299 127.851C456.366 127.719 470.982 128.881 471.389 132.774C471.796 136.668 467.484 136.704 467.484 136.704C467.484 136.704 473.581 138.117 473.629 142.059C473.677 146 466.98 145.857 466.98 145.857C466.98 145.857 473.138 147.761 472.91 151.703C472.683 155.644 465.962 154.362 465.962 154.362C465.962 154.362 471.677 155.848 470.119 159.011C468.238 162.82 458.019 158.891 452.413 159.322C451.143 159.418 426.764 163.132 426.764 163.132L423.289 133.96Z" fill="#EB9481"/>
<path d="M465.866 154.41C458.343 151.547 454.545 151.595 446.782 153.212C446.626 153.212 446.542 153.033 446.698 152.985C454.174 150.756 458.918 150.014 466.022 154.123C466.369 154.254 466.226 154.542 465.866 154.41Z" fill="#263238"/>
<path d="M467.316 145.868C459.241 143.568 455.132 143.58 446.878 144.67C446.758 144.67 446.722 144.491 446.878 144.467C454.893 142.766 459.637 142.071 467.412 145.497C467.723 145.593 467.687 145.976 467.316 145.868Z" fill="#263238"/>
<path d="M466.813 136.572C458.834 134.907 454.33 134.727 446.447 136.764C446.429 136.77 446.409 136.773 446.39 136.772C446.371 136.77 446.352 136.766 446.335 136.757C446.318 136.749 446.303 136.737 446.29 136.723C446.277 136.709 446.267 136.692 446.261 136.674C446.255 136.656 446.252 136.637 446.253 136.617C446.254 136.598 446.259 136.58 446.268 136.562C446.276 136.545 446.287 136.53 446.302 136.517C446.316 136.504 446.333 136.494 446.351 136.488C454.198 133.625 459.816 133.805 466.849 136.32C467.316 136.464 467.316 136.644 466.813 136.572Z" fill="#263238"/>
<path d="M421.696 165.887C421.696 165.887 431.364 168.786 435.88 169.122C440.397 169.457 457.744 164.521 456.893 160.736C455.779 155.824 445.213 156.71 440.121 157.825C440.121 157.825 437.57 146.456 429.854 145.449C422.139 144.443 421.696 165.887 421.696 165.887Z" fill="#EB9481"/>
<path d="M456.163 159.466C451.922 155.704 445.297 157.597 440.253 158.268C440.179 158.283 440.102 158.279 440.029 158.257C439.956 158.236 439.89 158.197 439.836 158.144C439.781 158.09 439.741 158.025 439.718 157.953C439.694 157.88 439.689 157.803 439.702 157.729C438.324 153.045 435.006 146.827 430.118 145.198C429.974 145.198 430.022 144.934 430.118 144.97C435.617 146 439.379 151.835 440.565 157.082C445.728 156.267 452.461 154.686 456.139 159.382C456.222 159.454 456.199 159.49 456.163 159.466Z" fill="#263238"/>
<path d="M450.843 207.506C423.433 200.102 380.269 175.315 384.235 163.383C388.08 151.787 404.265 139.663 424.967 133.218C427.986 132.271 427.363 138.609 428.764 149.654C429.447 154.877 438.612 168.954 434.191 168.918C431.88 168.988 429.604 169.496 427.482 170.416C425.865 171.038 445.309 184.025 456.174 192.171C470.814 203.097 462.548 210.656 450.843 207.506Z" fill="#EB9481"/>
<path d="M411.273 199.096L441.655 180.071C441.655 180.071 459.9 191.165 464.417 197.311C468.933 203.456 465.375 210.105 451.239 210.117C434.982 210.129 411.273 199.096 411.273 199.096Z" fill="#2563EB"/>
<g opacity="0.1">
<path d="M449.43 185.079H433.676L436.479 183.33H446.806L449.43 185.079Z" fill="black"/>
<path d="M457.445 190.829H424.476L427.267 189.08H455.132L457.445 190.829Z" fill="black"/>
<path d="M463.806 196.568H415.311L418.102 194.819H462.141C462.776 195.43 463.339 196.017 463.806 196.568Z" fill="black"/>
<path d="M466.238 202.318H418.941C417.276 201.671 415.814 201.12 414.628 200.569H466.022C466.18 201.138 466.253 201.728 466.238 202.318Z" fill="black"/>
<path d="M464.513 206.32C463.815 207.026 463.005 207.613 462.117 208.057H436.671C434.539 207.53 432.43 206.943 430.382 206.32H464.513Z" fill="black"/>
</g>
<path d="M419.3 201.432C431.532 193.956 443.643 185.522 445.656 183.881C445.74 183.809 445.656 183.677 445.536 183.725C436.407 189.042 427.606 194.903 419.18 201.276C419.16 201.292 419.146 201.315 419.143 201.341C419.139 201.367 419.146 201.393 419.162 201.414C419.178 201.434 419.202 201.448 419.227 201.451C419.253 201.455 419.279 201.448 419.3 201.432Z" fill="#263238"/>
<path d="M451.215 210.117C445.246 209.927 439.326 208.965 433.604 207.254C441.547 201.923 450.987 195.633 457.9 191.189C460.307 192.959 462.492 195.015 464.405 197.311C468.909 203.444 465.363 210.105 451.215 210.117Z" fill="#263238"/>
<path d="M350.691 541.352C354.069 541.676 445.848 519.788 448.735 516.841C449.094 516.506 447.285 508.168 444.638 496.787V496.559C442.973 489.371 416.245 431.028 416.245 431.028L356.753 447.609L383.779 501.722C383.779 501.722 372.578 509.809 362.994 517.536C357.064 522.256 351.949 526.485 350.87 527.863C347.983 531.421 347.336 541.053 350.691 541.352Z" fill="#EB9481"/>
<path d="M350.703 541.34C354.057 541.664 445.836 519.776 448.747 516.841C449.094 516.506 447.285 508.168 444.638 496.787V496.571C444.039 493.888 439.918 484.076 435.054 472.851C425.266 475.474 390.165 484.962 377.418 488.904L383.827 501.734C383.827 501.734 372.578 509.821 362.994 517.536C357.064 522.244 351.949 526.485 350.87 527.851C347.983 531.421 347.324 541.065 350.703 541.34Z" fill="#EBEBEB"/>
<path d="M350.391 541.784C353.865 542.083 445.704 519.98 448.627 516.925C449.753 515.727 447.729 501.279 442.697 485.921L383.504 500.297C383.504 500.297 353.278 524.257 350.379 527.923C347.48 531.589 346.929 541.496 350.391 541.784Z" fill="#2563EB"/>
<path d="M350.822 537.794C366.133 533.709 428.249 518.626 443.679 515.811C443.811 515.811 443.835 515.871 443.679 515.907C428.608 520.279 366.372 534.811 350.858 538.046C350.559 538.118 350.499 537.902 350.822 537.794Z" fill="#263238"/>
<path d="M355.53 523.155C357.232 522.697 359.01 522.596 360.753 522.86C362.495 523.124 364.164 523.747 365.653 524.688C368.339 526.367 370.277 529.013 371.068 532.08C371.068 532.176 370.925 532.224 370.889 532.08C369.63 529.157 367.457 526.721 364.697 525.138C361.936 523.555 358.737 522.909 355.578 523.298C355.564 523.294 355.552 523.286 355.542 523.275C355.531 523.265 355.524 523.252 355.519 523.238C355.514 523.224 355.513 523.21 355.515 523.195C355.517 523.181 355.522 523.167 355.53 523.155Z" fill="#263238"/>
<path d="M379.095 502.944C385.241 501.375 392.908 501.83 397.952 505.951C398.143 506.119 397.952 506.383 397.712 506.335C391.641 504.81 385.424 503.939 379.167 503.735C379.076 503.723 378.991 503.68 378.928 503.613C378.864 503.546 378.825 503.46 378.816 503.368C378.808 503.277 378.831 503.185 378.882 503.108C378.932 503.031 379.008 502.973 379.095 502.944Z" fill="#263238"/>
<path d="M374.782 505.951C380.928 504.382 388.595 504.837 393.639 508.958C393.83 509.114 393.639 509.39 393.399 509.342C387.331 507.822 381.118 506.955 374.866 506.754C374.813 506.76 374.76 506.755 374.709 506.74C374.659 506.724 374.611 506.7 374.57 506.666C374.529 506.633 374.495 506.592 374.469 506.545C374.444 506.498 374.428 506.447 374.423 506.395C374.417 506.342 374.422 506.289 374.437 506.238C374.452 506.187 374.477 506.14 374.511 506.099C374.544 506.057 374.585 506.023 374.632 505.998C374.678 505.973 374.73 505.957 374.782 505.951Z" fill="#263238"/>
<path d="M370.47 508.946C376.615 507.377 384.283 507.832 389.326 511.953C389.518 512.109 389.326 512.385 389.087 512.337C383.02 510.807 376.807 509.936 370.553 509.737C370.461 509.727 370.376 509.685 370.311 509.619C370.245 509.553 370.204 509.467 370.195 509.375C370.185 509.283 370.207 509.191 370.257 509.113C370.307 509.035 370.382 508.976 370.47 508.946Z" fill="#263238"/>
<path d="M366.169 511.953C372.302 510.384 379.97 510.839 385.013 514.948C385.205 515.116 385.013 515.392 384.774 515.344C378.706 513.82 372.493 512.949 366.241 512.744C366.136 512.754 366.031 512.721 365.95 512.654C365.87 512.586 365.819 512.489 365.809 512.385C365.8 512.28 365.832 512.175 365.9 512.095C365.967 512.014 366.064 511.963 366.169 511.953Z" fill="#263238"/>
<path d="M436.24 502.13C443.164 500.489 445.728 511.235 438.804 512.912C431.879 514.589 429.315 503.771 436.24 502.13Z" fill="#263238"/>
<path d="M371.14 497.026C375.501 500.512 381.216 501.998 386.331 503.975C386.449 504.009 386.572 504.014 386.692 503.991C386.813 503.969 386.926 503.918 387.022 503.843C387.119 503.769 387.197 503.672 387.25 503.562C387.302 503.451 387.328 503.33 387.325 503.208C387.351 503.208 387.376 503.202 387.399 503.19C387.422 503.177 387.441 503.16 387.455 503.139C387.469 503.117 387.478 503.093 387.48 503.067C387.483 503.042 387.479 503.016 387.469 502.992C385.659 497.457 382.419 492.498 378.077 488.616C375.513 486.388 370.973 484.807 368.493 488.149C366.121 491.264 368.601 494.99 371.14 497.026ZM369.631 491.983C368.625 485.13 375.92 488.832 377.741 490.545C378.907 491.668 379.996 492.869 381 494.139C383.026 496.806 384.917 499.573 386.667 502.429C384.211 501.303 381.683 500.393 379.191 499.362C376.172 498.152 370.182 495.768 369.631 491.983Z" fill="#263238"/>
<path d="M408.41 493.792C406.961 489.886 402.157 490.114 399.066 491.527C393.799 494.034 389.287 497.886 385.984 502.693C385.969 502.714 385.96 502.738 385.957 502.764C385.953 502.789 385.956 502.815 385.964 502.839C385.972 502.863 385.986 502.885 386.004 502.904C386.021 502.922 386.043 502.936 386.068 502.944C386.03 503.06 386.02 503.184 386.039 503.304C386.058 503.425 386.105 503.539 386.176 503.638C386.247 503.737 386.34 503.818 386.448 503.874C386.557 503.931 386.676 503.961 386.798 503.963C392.261 503.507 398.167 503.699 403.331 501.567C406.35 500.345 409.788 497.481 408.41 493.792ZM394.945 501.579C392.261 501.866 389.578 502.022 386.906 502.405C389.393 500.158 391.992 498.039 394.693 496.056C396.009 495.103 397.395 494.25 398.838 493.504C401.066 492.378 409.105 490.892 406.206 497.182C404.613 500.644 398.143 501.231 394.945 501.579Z" fill="#263238"/>
<path d="M378.472 494.678L441.643 477.762C441.643 477.762 386.127 362.647 390.608 356.309C392.848 353.146 452.053 350.475 470.419 333.931C494.271 312.45 476.912 281.219 476.912 281.219H410.71C410.71 281.219 411.908 295.031 409.393 297.188C407.739 298.625 329.127 307.598 321.256 334.458C311.612 367.391 378.472 494.678 378.472 494.678Z" fill="#263238"/>
<path d="M377.37 485.418C379.046 484.64 380.775 483.983 382.545 483.453C384.378 482.818 386.223 482.183 388.056 481.572C391.65 480.374 395.34 479.248 399.006 478.194C406.398 476.061 413.789 473.977 421.241 472.036C425.122 471.03 433.424 468.837 433.952 468.909C434.191 468.909 434.251 469.364 434.035 469.448C426.847 472.06 419.54 474.3 412.244 476.576C404.948 478.853 397.652 481.069 390.261 482.974C388.212 483.501 386.151 483.98 384.103 484.483C381.959 485.117 379.773 485.597 377.562 485.921C377.37 485.933 377.13 485.525 377.37 485.418Z" fill="#455A64"/>
<path d="M379.131 351.158C380.437 349.96 382.425 349.792 384.079 349.457L412.579 343.826C421.468 342.065 430.417 340.46 439.259 338.471C446.578 336.83 454.006 334.697 460.26 330.504C466.379 326.385 470.814 320.202 472.755 313.085C474.779 306.005 474.707 298.458 473.797 291.21C473.569 289.437 473.186 287.676 472.803 285.927C472.803 285.795 472.994 285.747 473.018 285.927C475.846 299.416 476.528 315.158 466.693 326.263C461.901 331.678 455.18 334.985 448.303 337.189C440.528 339.693 432.382 341.011 424.343 342.592L395.843 348.223C391.267 349.121 386.618 349.864 382.09 350.954C381.17 351.1 380.315 351.517 379.634 352.152C379.318 352.641 379.126 353.2 379.073 353.78C379.021 354.361 379.111 354.945 379.335 355.483C379.862 357.711 380.533 359.927 381.239 362.108C386.99 379.766 427.267 463.374 428.357 465.303C428.477 465.507 428.153 465.675 428.033 465.471C418.809 450.113 388.787 385.564 382.509 368.888C380.86 364.62 379.487 360.251 378.4 355.806C378.017 354.201 377.777 352.404 379.131 351.158Z" fill="#455A64"/>
<path d="M189.032 543.652C192.171 544.91 286.394 549.726 290.012 547.678C290.443 547.462 291.054 538.944 291.701 527.312L292.18 516.314C292.348 512.6 340.855 458.534 340.855 458.534L273.228 454.449L231.873 514.936C231.873 514.936 218.851 519.549 207.482 524.221C200.437 527.12 194.352 529.696 192.878 530.714C189.284 533.362 185.882 542.43 189.032 543.652Z" fill="#EB9481"/>
<path d="M304.544 500.057C297.499 508.443 292.24 515.068 292.192 516.29L291.701 527.288C291.054 538.944 290.443 547.462 290.012 547.654C286.418 549.702 192.171 544.886 189.02 543.64C185.87 542.395 189.212 533.338 192.926 530.69C194.352 529.684 200.449 527.096 207.458 524.185C218.815 519.525 231.837 514.912 231.837 514.912L243.817 497.446L304.544 500.057Z" fill="#EBEBEB"/>
<path d="M188.613 543.988C191.86 545.258 286.214 549.834 289.928 547.738C291.342 546.947 293.522 532.475 292.947 516.326L232.113 513.439C232.113 513.439 196.376 527.911 192.579 530.642C188.781 533.374 185.379 542.694 188.613 543.988Z" fill="#2563EB"/>
<path d="M190.159 540.298C205.996 540.669 269.826 543.7 285.447 545.282C285.579 545.282 285.579 545.378 285.447 545.378C269.742 545.378 205.936 541.784 190.147 540.586C189.811 540.514 189.823 540.298 190.159 540.298Z" fill="#263238"/>
<path d="M198.784 527.551C200.547 527.589 202.283 527.993 203.881 528.737C205.48 529.482 206.906 530.551 208.069 531.876C210.178 534.239 211.294 537.324 211.183 540.49C211.183 540.586 211.004 540.574 210.992 540.49C210.607 537.333 209.209 534.385 207.009 532.09C204.808 529.794 201.922 528.273 198.784 527.755C198.757 527.755 198.731 527.744 198.712 527.725C198.693 527.706 198.682 527.68 198.682 527.653C198.682 527.626 198.693 527.6 198.712 527.581C198.731 527.562 198.757 527.551 198.784 527.551Z" fill="#263238"/>
<path d="M227.081 514.781C233.406 514.996 240.642 517.596 244.32 522.963C244.464 523.167 244.164 523.37 243.985 523.262C238.589 520.094 232.87 517.512 226.925 515.559C226.841 515.522 226.772 515.456 226.73 515.374C226.688 515.292 226.675 515.198 226.693 515.108C226.711 515.017 226.759 514.936 226.83 514.876C226.9 514.817 226.989 514.783 227.081 514.781Z" fill="#263238"/>
<path d="M222.097 516.446C228.435 516.673 235.659 519.261 239.348 524.628C239.48 524.832 239.193 525.036 239.001 524.928C233.61 521.759 227.894 519.177 221.953 517.225C221.85 517.205 221.759 517.146 221.699 517.06C221.64 516.973 221.617 516.867 221.636 516.763C221.655 516.66 221.714 516.569 221.801 516.509C221.887 516.449 221.994 516.427 222.097 516.446Z" fill="#263238"/>
<path d="M217.114 518.123C223.451 518.339 230.687 520.926 234.365 526.293C234.509 526.509 234.209 526.701 234.029 526.605C228.637 523.428 222.917 520.841 216.97 518.89C216.882 518.858 216.808 518.795 216.762 518.714C216.715 518.633 216.699 518.537 216.716 518.445C216.734 518.353 216.783 518.27 216.856 518.211C216.929 518.152 217.02 518.121 217.114 518.123Z" fill="#263238"/>
<path d="M212.13 519.788C218.467 520.004 225.703 522.592 229.381 527.971C229.525 528.174 229.225 528.378 229.046 528.27C223.669 525.102 217.971 522.515 212.046 520.555C211.961 520.526 211.889 520.469 211.841 520.393C211.793 520.317 211.772 520.227 211.781 520.138C211.791 520.049 211.831 519.966 211.894 519.902C211.958 519.839 212.041 519.798 212.13 519.788Z" fill="#263238"/>
<path d="M282.153 530.055C289.257 530.414 288.694 541.46 281.578 541.089C274.462 540.717 275.037 529.684 282.153 530.055Z" fill="#263238"/>
<path d="M221.103 506.862C224.314 511.438 229.381 514.457 233.742 517.8C233.846 517.871 233.965 517.916 234.09 517.931C234.215 517.947 234.342 517.931 234.46 517.886C234.578 517.841 234.683 517.769 234.767 517.674C234.85 517.58 234.91 517.467 234.94 517.344C234.965 517.35 234.99 517.35 235.015 517.344C235.04 517.338 235.063 517.326 235.082 517.31C235.102 517.294 235.118 517.273 235.128 517.25C235.139 517.227 235.144 517.202 235.143 517.177C234.94 511.362 233.213 505.702 230.136 500.764C228.303 497.913 224.385 495.109 221.055 497.613C217.725 500.117 219.234 504.19 221.103 506.862ZM221.103 501.603C222.073 494.75 228.027 500.333 229.297 502.501C230.101 503.908 230.805 505.369 231.406 506.874C232.604 510.014 233.644 513.213 234.52 516.458C232.484 514.685 230.304 513.103 228.207 511.414C225.667 509.366 220.54 505.376 221.067 501.603H221.103Z" fill="#263238"/>
<path d="M257.786 514.23C257.486 510.072 252.814 508.946 249.4 509.438C243.642 510.371 238.23 512.8 233.706 516.482C233.686 516.497 233.67 516.517 233.659 516.54C233.648 516.563 233.642 516.588 233.642 516.614C233.642 516.639 233.648 516.664 233.659 516.687C233.67 516.71 233.686 516.73 233.706 516.745C233.631 516.846 233.582 516.963 233.564 517.087C233.545 517.211 233.557 517.337 233.598 517.455C233.639 517.574 233.709 517.68 233.801 517.765C233.893 517.85 234.004 517.911 234.125 517.943C239.504 519.057 245.111 520.902 250.658 520.339C253.976 519.932 258.061 518.159 257.786 514.23ZM242.679 517.919C240.019 517.44 237.396 516.829 234.724 516.458C237.743 514.997 240.834 513.69 243.985 512.54C245.515 512.006 247.08 511.577 248.669 511.258C251.137 510.803 259.271 511.642 254.719 516.865C252.215 519.74 245.842 518.494 242.679 517.919Z" fill="#263238"/>
<path d="M228.986 502.262L304.544 511.546C304.544 511.546 379.263 422.151 385.301 416.197C404.014 397.748 471.102 365.881 491.12 336.291C509.09 309.683 490.893 281.254 490.893 281.254H417.12C419.011 289.114 421.527 296.809 424.643 304.268C424.643 304.268 363.365 350.403 330.708 383.336C309.659 404.577 228.986 502.262 228.986 502.262Z" fill="#263238"/>
<path d="M411.525 299.5C413.68 299.914 415.793 300.524 417.838 301.321C419.971 302.064 422.079 302.926 424.152 303.849C428.212 305.716 432.167 307.804 436 310.102C436.12 310.174 436 310.342 435.892 310.282C431.843 308.329 427.674 306.592 423.493 304.927L417.503 302.531C415.429 301.811 413.393 300.983 411.405 300.051C411.106 299.979 411.237 299.5 411.525 299.5Z" fill="#455A64"/>
<path d="M415.407 281.231C416.353 284.573 417.192 287.939 418.246 291.246C418.737 292.755 419.216 294.301 419.839 295.774C420.366 296.972 421.145 298.41 422.607 298.649C424.284 298.925 424.727 297.451 424.547 296.11C424.294 294.568 423.962 293.041 423.553 291.533C423.158 289.796 421.157 281.362 421.157 281.314C421.157 281.266 421.157 281.159 421.241 281.063C421.261 281.045 421.286 281.035 421.313 281.035C421.339 281.035 421.365 281.045 421.385 281.063C421.708 281.231 423.781 287.712 424.212 289.317C424.643 290.922 425.11 292.54 425.554 294.109C426.01 295.295 426.162 296.575 425.997 297.835C425.86 298.434 425.535 298.974 425.07 299.375C424.604 299.776 424.022 300.017 423.409 300.063C423.469 300.171 423.541 300.267 423.601 300.387C423.757 300.71 423.876 301.057 424.008 301.393C424.14 301.728 424.272 302.088 424.392 302.435C424.439 302.604 424.475 302.776 424.499 302.95C424.499 303.154 424.499 303.346 424.499 303.537C424.526 303.606 424.525 303.682 424.496 303.749C424.467 303.817 424.412 303.87 424.344 303.897C424.275 303.924 424.199 303.922 424.132 303.893C424.064 303.864 424.011 303.809 423.984 303.741C423.888 303.573 423.757 303.441 423.649 303.274C423.546 303.099 423.461 302.915 423.397 302.723C423.277 302.387 423.17 302.052 423.074 301.716C422.978 301.381 422.858 301.033 422.786 300.698C422.747 300.492 422.719 300.284 422.702 300.075C421.997 300.032 421.317 299.796 420.738 299.392C419.768 298.609 419.041 297.566 418.641 296.385C418.09 294.996 417.659 293.558 417.216 292.132C416.081 288.618 415.259 285.01 414.76 281.35C414.744 281.265 414.763 281.176 414.812 281.104C414.861 281.032 414.937 280.983 415.023 280.967C415.109 280.951 415.198 280.97 415.269 281.019C415.341 281.069 415.391 281.145 415.407 281.231Z" fill="#455A64"/>
<path d="M459.481 288.167C459.84 289.82 460.08 291.497 460.511 293.151C460.943 294.804 461.422 296.361 462.009 297.943C462.527 299.465 463.261 300.906 464.189 302.219C465.147 303.457 466.281 304.547 467.556 305.454C469.986 307.268 472.698 308.673 475.582 309.611C477.032 310.106 478.513 310.506 480.015 310.809C480.793 310.953 481.572 311.073 482.411 311.145C483.06 311.15 483.703 311.28 484.304 311.528C484.361 311.562 484.408 311.61 484.441 311.668C484.474 311.726 484.491 311.791 484.491 311.857C484.491 311.924 484.474 311.989 484.441 312.047C484.408 312.105 484.361 312.153 484.304 312.187C483.18 312.558 481.979 312.632 480.817 312.402C476.98 312.129 473.254 310.995 469.916 309.084C467.665 307.893 465.638 306.32 463.926 304.436C462.297 302.451 461.145 300.119 460.559 297.619C459.696 294.575 459.256 291.427 459.253 288.263C459.261 288.241 459.274 288.221 459.29 288.204C459.305 288.187 459.325 288.174 459.346 288.165C459.368 288.156 459.391 288.151 459.414 288.152C459.437 288.152 459.46 288.157 459.481 288.167Z" fill="#455A64"/>
<path d="M245.59 491.18C247.63 491.128 249.671 491.208 251.7 491.42C253.844 491.563 255.977 491.695 258.109 491.863C262.314 492.21 266.495 492.594 270.688 493.061C279.074 494.019 287.556 495.014 295.954 496.176C300.339 496.787 309.743 498.045 310.246 498.32C310.297 498.353 310.335 498.402 310.357 498.459C310.378 498.515 310.381 498.577 310.365 498.636C310.349 498.694 310.315 498.746 310.268 498.784C310.221 498.822 310.163 498.844 310.102 498.847C301.716 498.404 293.33 497.589 284.944 496.799C276.558 496.008 268.172 495.181 259.786 494.019C257.486 493.696 255.186 493.312 252.874 492.965C250.421 492.707 247.987 492.287 245.59 491.707C245.362 491.611 245.314 491.18 245.59 491.18Z" fill="#455A64"/>
<path d="M408.242 398.934C404.325 401.45 400.539 404.157 396.742 406.841C393.116 409.201 389.635 411.778 386.319 414.556C384.684 416.095 383.144 417.731 381.707 419.456L377.202 424.667C374.195 428.129 371.212 431.627 368.253 435.138C366.576 437.11 364.911 439.107 363.258 441.128C361.532 443.2 359.927 445.38 358.19 447.453C358.169 447.479 358.159 447.512 358.161 447.545C358.164 447.578 358.179 447.609 358.203 447.631C358.227 447.654 358.259 447.667 358.292 447.667C358.325 447.667 358.357 447.655 358.382 447.633C361.449 444.17 364.707 440.852 367.774 437.378C370.841 433.904 373.908 430.429 376.939 426.907C379.97 423.385 382.677 419.995 385.792 416.772C388.977 413.761 392.434 411.05 396.119 408.674C400.312 405.679 404.505 402.684 408.614 399.557C408.961 399.293 408.638 398.718 408.242 398.934Z" fill="#455A64"/>
<path d="M423.457 304.783C410.854 313.624 397.82 323.508 385.972 333.32C374.123 343.131 362.395 353.146 350.942 363.449C347.747 366.324 344.553 369.24 341.358 372.195C338.171 375.166 335.057 378.891 331.87 381.863C331.702 382.018 331.966 382.27 332.133 382.114C337.896 376.951 343.85 371.332 349.684 366.253C355.518 361.173 361.305 356.189 367.139 351.194C378.863 341.154 390.736 331.287 402.756 321.591C409.416 316.188 417.132 310.725 423.721 305.155C423.972 304.975 423.673 304.615 423.457 304.783Z" fill="#455A64"/>
<path d="M488.652 289.916C487.933 287.796 487.167 285.687 486.376 283.579C486.376 283.459 486.136 283.579 486.184 283.638C489.155 292.408 492.174 301.393 492.51 310.737C492.718 315.212 492.067 319.685 490.593 323.915C489.053 327.958 486.769 331.676 483.86 334.877C477.99 341.502 470.526 346.725 463.494 352.008C455.827 357.751 448.036 363.341 440.121 368.78C432.238 374.195 424.152 379.359 415.982 384.354C407.811 389.35 399.545 393.854 391.423 398.73C387.484 401.057 383.798 403.787 380.425 406.877C377.023 410.063 373.98 413.598 370.913 417.108C364.348 424.607 357.847 432.163 351.409 439.774C338.479 454.948 325.808 470.351 313.397 485.981C311.879 487.882 310.362 489.794 308.844 491.719C308.772 491.815 308.844 491.947 308.976 491.851C321.755 476.205 334.673 460.671 347.731 445.249C354.217 437.581 360.738 429.954 367.295 422.367C373.584 415.107 379.634 407.404 387.661 402.001C391.53 399.365 395.663 397.125 399.725 394.813C403.982 392.417 408.199 389.949 412.376 387.409C420.706 382.402 428.9 377.21 436.958 371.835C444.973 366.468 452.88 360.969 460.643 355.231C464.508 352.372 468.35 349.457 472.168 346.486C475.47 343.988 478.633 341.313 481.644 338.471C484.622 335.656 487.179 332.429 489.239 328.887C491.311 325.141 492.595 321.011 493.013 316.751C493.923 307.61 491.539 298.47 488.652 289.916Z" fill="#455A64"/>
<path d="M405.188 294.217C406.505 296.733 498.632 318.033 499.279 317.614C500.884 316.416 506.167 232.053 481.86 194.316C477.583 187.667 467.184 186.433 461.829 187.822C459.158 188.517 448.172 197.874 443.14 207.23C438.109 216.586 404.373 292.612 405.188 294.217Z" fill="#2563EB"/>
<g opacity="0.1">
<path d="M478.445 190.829H457.229C458.067 190.135 458.846 189.548 459.529 189.08H475.282C476.402 189.537 477.464 190.124 478.445 190.829Z" fill="black"/>
<path d="M483.237 196.568H451.119C451.682 195.957 452.257 195.37 452.82 194.819H482.171C482.542 195.394 482.89 195.969 483.237 196.568Z" fill="black"/>
<path d="M486.28 202.318H446.291C446.722 201.719 447.177 201.12 447.633 200.569H485.417C485.717 201.144 485.993 201.731 486.28 202.318Z" fill="black"/>
<path d="M488.784 208.057H442.721L443.14 207.23C443.308 206.931 443.475 206.619 443.655 206.32H488.053C488.293 206.895 488.532 207.47 488.784 208.057Z" fill="black"/>
<path d="M490.844 213.807H439.929C440.229 213.184 440.504 212.609 440.756 212.058H490.245C490.449 212.633 490.653 213.244 490.844 213.807Z" fill="black"/>
<path d="M492.618 219.557H437.27L438.073 217.808H492.102C492.282 218.383 492.45 218.97 492.618 219.557Z" fill="black"/>
<path d="M494.127 225.296H434.646C434.91 224.697 435.173 224.098 435.437 223.547H493.696L494.127 225.296Z" fill="black"/>
<path d="M495.433 231.046H432.035C432.298 230.459 432.574 229.848 432.825 229.297H495.049C495.181 229.872 495.313 230.459 495.433 231.046Z" fill="black"/>
<path d="M496.535 236.797H429.447C429.711 236.21 429.962 235.599 430.226 235.048H496.212C496.331 235.623 496.439 236.21 496.535 236.797Z" fill="black"/>
<path d="M497.505 242.535H426.895C427.159 241.948 427.41 241.337 427.674 240.786H497.17L497.505 242.535Z" fill="black"/>
<path d="M498.368 248.285H424.344C424.595 247.71 424.859 247.087 425.11 246.536H498.08C498.164 247.123 498.236 247.698 498.368 248.285Z" fill="black"/>
<path d="M499.003 253.976H421.816C422.067 253.389 422.319 252.778 422.582 252.227H498.799C498.871 252.862 498.931 253.437 499.003 253.976Z" fill="black"/>
<path d="M499.566 259.774H419.3C419.539 259.199 419.803 258.576 420.055 258.025H499.398C499.458 258.612 499.566 259.187 499.566 259.774Z" fill="black"/>
<path d="M500.021 265.525H416.796C417.036 264.95 417.299 264.327 417.551 263.776H499.889C499.937 264.363 499.985 264.938 500.021 265.525Z" fill="black"/>
<path d="M500.38 271.263H414.316L415.059 269.514H500.285C500.321 270.101 500.345 270.748 500.38 271.263Z" fill="black"/>
<path d="M500.632 277.014H411.86L412.603 275.264H500.572C500.596 275.851 500.62 276.438 500.632 277.014Z" fill="black"/>
<path d="M500.764 282.728H409.452L410.183 280.979H500.764V282.728Z" fill="black"/>
<path d="M500.884 288.502H407.128C407.332 287.951 407.571 287.364 407.811 286.753H500.872C500.884 287.34 500.884 287.927 500.884 288.502Z" fill="black"/>
<path d="M500.884 292.504C500.884 293.091 500.884 293.702 500.884 294.253H405.211C405.248 293.66 405.394 293.079 405.643 292.54L500.884 292.504Z" fill="black"/>
<path d="M500.764 298.302C500.764 298.901 500.764 299.5 500.764 300.051H424.092C421.696 299.44 419.528 298.853 417.503 298.302H500.764Z" fill="black"/>
<path d="M500.62 303.992C500.62 304.591 500.62 305.191 500.548 305.742H447.213C444.817 305.155 442.421 304.544 440.025 303.992H500.62Z" fill="black"/>
<path d="M500.309 309.731C500.309 310.342 500.225 310.929 500.177 311.48H471.425L463.938 309.731H500.309Z" fill="black"/>
<path d="M499.758 315.481C499.7 316.072 499.595 316.656 499.446 317.23H497.05C495.253 316.871 492.462 316.26 488.952 315.481H499.758Z" fill="black"/>
</g>
<path d="M477.702 213.723C494.271 212.381 521.729 206.439 536.668 198.149C545.629 193.142 546.983 186.421 547.45 181.725C548.648 169.577 528.402 149.858 517.764 142.502C516.362 141.532 514.325 148.672 507.88 156.686C502.429 163.479 492.15 171.146 493.696 172.452C495.972 174.369 506.526 181.641 506.023 182.515C505.161 184.013 495.373 188.17 480.709 195.274C461.038 204.762 466.022 214.682 477.702 213.723Z" fill="#EB9481"/>
<path d="M521.286 209.039L492.869 187.188C492.869 187.188 473.641 196.484 468.574 202.162C463.506 207.841 466.394 214.801 480.482 216.179C496.631 217.748 521.286 209.039 521.286 209.039Z" fill="#2563EB"/>
<path d="M514.134 209.722C503.352 200.222 491.791 191.117 489.623 189.655C489.527 189.595 489.431 189.739 489.503 189.811C497.266 196.987 505.455 203.688 514.026 209.878C514.11 209.938 514.218 209.794 514.134 209.722Z" fill="#263238"/>
<path d="M496.918 213.963C494.775 214.329 492.733 215.145 490.928 216.359C490.071 216.998 489.302 217.747 488.64 218.587C488.298 218.99 487.993 219.423 487.73 219.881C487.462 220.315 487.233 220.772 487.047 221.247C487.047 221.354 487.167 221.414 487.227 221.343C487.574 220.995 487.862 220.588 488.221 220.24C488.58 219.893 488.904 219.522 489.275 219.186C490.029 218.475 490.83 217.815 491.671 217.209C493.257 215.909 495.062 214.903 497.002 214.238C497.02 214.233 497.037 214.224 497.052 214.212C497.066 214.2 497.079 214.185 497.087 214.168C497.096 214.152 497.102 214.133 497.104 214.115C497.106 214.096 497.104 214.077 497.098 214.059C497.093 214.041 497.084 214.024 497.072 214.009C497.06 213.995 497.045 213.982 497.028 213.974C497.011 213.965 496.993 213.959 496.974 213.957C496.955 213.955 496.937 213.957 496.918 213.963Z" fill="#263238"/>
<g opacity="0.1">
<path d="M497.601 190.829H485.765C486.963 190.183 488.161 189.631 489.096 189.08H495.325L497.601 190.829Z" fill="black"/>
<path d="M505.065 196.568H475.846C476.756 195.981 477.715 195.37 478.673 194.819H502.789L505.065 196.568Z" fill="black"/>
<path d="M512.54 202.318H468.418L468.55 202.162C469.072 201.594 469.632 201.061 470.227 200.569H510.252L512.54 202.318Z" fill="black"/>
<path d="M520.004 208.057H466.286C466.22 207.477 466.244 206.891 466.357 206.32H517.752L520.004 208.057Z" fill="black"/>
<path d="M511.378 212.046C509.246 212.621 506.862 213.244 504.334 213.795H471.101C470.154 213.33 469.271 212.742 468.478 212.046H511.378Z" fill="black"/>
</g>
<path d="M459.361 203.408C464.153 205.397 473.845 199.263 478.218 193.705C478.505 193.321 479.572 176.262 480.135 172.895C480.242 172.213 458.199 174.501 458.199 174.501C458.702 178.902 458.661 183.348 458.079 187.739C457.996 188.23 454.773 201.48 459.361 203.408Z" fill="#EB9481"/>
<path d="M457.708 189.092C457.708 189.164 457.708 189.236 457.636 189.32H457.744C458.412 189.531 459.098 189.684 459.792 189.775C471.293 191.428 477.499 177.987 479.476 172.752C475.882 172.644 458.199 174.477 458.199 174.477C458.701 178.878 458.661 183.324 458.079 187.715C458.079 187.882 458.019 188.038 457.995 188.182C457.928 188.494 457.832 188.798 457.708 189.092Z" fill="#263238"/>
<path d="M455.312 135.218C455.312 135.218 448.124 138.117 446.734 145.377C445.345 152.637 446.926 160.28 447.549 160.664C448.172 161.047 455.312 135.218 455.312 135.218Z" fill="#263238"/>
<path d="M483.022 146.072C485.31 153.655 481.273 175.531 475.834 180.407C468.011 187.463 455.228 188.11 449.238 178.706C443.428 169.601 449.238 141.184 455.228 136.776C464.141 130.247 479.619 134.883 483.022 146.072Z" fill="#EB9481"/>
<path d="M447.716 154.41C447.258 156.418 446.977 158.463 446.878 160.52C446.734 162.641 446.71 164.761 446.722 166.881C446.722 167.001 446.914 166.989 446.914 166.881C446.914 164.797 447.058 162.712 447.237 160.64C447.417 158.567 447.752 156.507 447.86 154.434C447.872 154.338 447.74 154.338 447.716 154.41Z" fill="#263238"/>
<path d="M461.23 159.334C461.23 159.274 461.338 159.418 461.326 159.478C461.014 160.951 460.907 162.676 462.152 163.407C462.152 163.407 462.152 163.503 462.152 163.491C460.559 162.928 460.727 160.628 461.23 159.334Z" fill="#263238"/>
<path d="M462.859 157.98C465.255 158.232 464.584 163.012 462.356 162.772C460.128 162.533 460.835 157.777 462.859 157.98Z" fill="#263238"/>
<path d="M453.036 158.364C453.036 158.304 452.904 158.364 452.904 158.471C452.736 159.969 452.305 161.646 450.891 161.958V162.041C452.569 162.03 453.12 159.801 453.036 158.364Z" fill="#263238"/>
<path d="M451.922 156.627C449.526 156.111 448.711 160.867 450.891 161.347C453.072 161.826 453.898 157.058 451.922 156.627Z" fill="#263238"/>
<path d="M465.052 156.051C464.448 155.782 463.86 155.478 463.291 155.141C462.624 154.906 462.052 154.46 461.661 153.871C461.579 153.662 461.567 153.432 461.628 153.216C461.688 153 461.818 152.809 461.997 152.673C462.396 152.459 462.845 152.355 463.298 152.372C463.75 152.389 464.19 152.526 464.572 152.769C465.418 153.141 466.093 153.816 466.465 154.662C466.536 154.858 466.55 155.071 466.503 155.274C466.457 155.478 466.353 155.664 466.204 155.81C466.056 155.957 465.868 156.057 465.663 156.1C465.459 156.143 465.247 156.126 465.052 156.051Z" fill="#263238"/>
<path d="M450.448 153.955C451.107 153.915 451.762 153.839 452.413 153.727C453.12 153.744 453.814 153.529 454.389 153.116C454.529 152.952 454.614 152.749 454.634 152.535C454.653 152.32 454.605 152.105 454.497 151.918C454.205 151.583 453.83 151.33 453.41 151.185C452.989 151.04 452.538 151.008 452.101 151.092C451.174 151.14 450.298 151.533 449.645 152.194C449.522 152.351 449.445 152.539 449.421 152.737C449.397 152.936 449.429 153.137 449.512 153.318C449.594 153.5 449.725 153.656 449.891 153.768C450.056 153.88 450.249 153.945 450.448 153.955Z" fill="#263238"/>
<path d="M461.11 173.279C460.703 173.578 460.284 174.01 459.732 173.986C459.182 173.892 458.657 173.688 458.187 173.387C458.187 173.387 458.091 173.387 458.115 173.446C458.285 173.77 458.54 174.042 458.852 174.232C459.164 174.422 459.523 174.523 459.888 174.525C460.208 174.482 460.507 174.346 460.748 174.132C460.989 173.919 461.161 173.638 461.242 173.327C461.23 173.291 461.158 173.243 461.11 173.279Z" fill="#263238"/>
<path d="M460.164 168.619C459.706 169.155 459.142 169.591 458.506 169.899C457.871 170.206 457.179 170.378 456.474 170.404C455.862 170.431 455.249 170.375 454.653 170.236L454.306 170.14C454.199 170.119 454.094 170.087 453.994 170.044C453.915 170.022 453.846 169.972 453.8 169.904C453.754 169.837 453.734 169.754 453.742 169.673C453.737 169.625 453.737 169.577 453.742 169.529V169.397C453.862 168.199 454.222 166.522 454.222 166.522C453.778 166.678 451.514 167.337 451.634 166.75C452.482 161.616 453.851 156.583 455.719 151.727C455.779 151.571 456.031 151.643 455.995 151.799C455.228 156.591 453.599 161.131 452.796 165.887C453.603 165.636 454.443 165.503 455.288 165.492C455.444 165.564 454.545 168.81 454.521 169.337C455.443 169.564 456.4 169.603 457.337 169.45C458.274 169.298 459.17 168.958 459.972 168.451C460.164 168.403 460.272 168.523 460.164 168.619Z" fill="#263238"/>
<path d="M455.408 169.745C455.917 170.648 456.652 171.403 457.54 171.937C458.034 172.218 458.605 172.335 459.169 172.272C460.367 172.129 460.583 171.074 460.487 170.08C460.442 169.569 460.333 169.066 460.164 168.583C458.742 169.466 457.076 169.873 455.408 169.745Z" fill="#263238"/>
<path d="M457.54 171.937C458.034 172.218 458.605 172.335 459.17 172.272C460.368 172.129 460.583 171.074 460.487 170.08C459.859 170.014 459.227 170.161 458.692 170.498C458.158 170.835 457.752 171.342 457.54 171.937Z" fill="#FF98B9"/>
<path d="M481.249 163.815C478.745 164.174 477.115 156.555 476.768 153.655C476.457 151.116 476.876 143.257 476.84 142.706C476.804 142.155 465.339 147.929 459.577 145.222C453.814 142.514 450.64 136.464 450.951 133.924C451.263 131.385 459.756 126.149 466.286 126.832C472.815 127.515 480.302 137.123 480.302 137.123C479.431 135.752 478.67 134.314 478.026 132.822C478.182 132.547 482.099 134.871 482.411 137.974C482.411 137.974 482.159 134.104 482.494 134.08C482.83 134.056 485.573 137.782 484.459 140.07C484.459 140.07 487.706 143.916 487.502 147.546C487.298 151.176 484.196 163.395 481.249 163.815Z" fill="#263238"/>
<path d="M455.492 143.293C457.129 144.53 458.942 145.515 460.871 146.216C463.061 146.767 465.353 146.767 467.544 146.216C469.74 145.729 471.843 144.892 473.773 143.736C475.474 142.73 477.044 141.436 478.829 140.585C479.272 140.37 479.655 141.017 479.344 141.352C476.063 144.726 471.782 146.952 467.136 147.701C464.981 148.053 462.772 147.837 460.726 147.074C458.679 146.311 456.867 145.029 455.468 143.353C455.468 143.353 455.468 143.269 455.492 143.293Z" fill="#263238"/>
<path d="M462.164 166.402C460.525 165.956 459.128 164.879 458.28 163.407C457.431 161.934 457.2 160.186 457.636 158.543C457.948 157.385 458.578 156.338 459.455 155.52C460.333 154.702 461.422 154.147 462.599 153.918C463.777 153.689 464.994 153.794 466.115 154.223C467.235 154.651 468.212 155.385 468.936 156.342C469.66 157.298 470.101 158.438 470.208 159.633C470.316 160.827 470.087 162.028 469.546 163.099C469.005 164.169 468.175 165.066 467.15 165.689C466.124 166.311 464.945 166.633 463.746 166.618C463.211 166.617 462.68 166.544 462.164 166.402ZM458.463 158.759C458.176 159.82 458.211 160.943 458.562 161.985C458.913 163.026 459.566 163.94 460.437 164.611C461.308 165.282 462.358 165.68 463.455 165.754C464.552 165.828 465.646 165.575 466.599 165.027C467.552 164.48 468.321 163.661 468.81 162.676C469.298 161.691 469.483 160.584 469.342 159.494C469.201 158.403 468.739 157.379 468.016 156.551C467.293 155.723 466.341 155.128 465.279 154.842C464.829 154.726 464.367 154.661 463.902 154.65C462.668 154.636 461.465 155.032 460.48 155.775C459.496 156.519 458.786 157.568 458.463 158.759Z" fill="#2563EB"/>
<path d="M448.747 164.605C446.135 164.258 444.386 161.131 444.841 157.621C445.017 156.031 445.692 154.538 446.77 153.356C447.198 152.817 447.759 152.398 448.397 152.14C449.035 151.881 449.729 151.792 450.411 151.881C451.094 151.971 451.742 152.235 452.292 152.649C452.842 153.063 453.276 153.612 453.551 154.243C454.281 155.667 454.545 157.284 454.306 158.867C453.874 162.185 451.622 164.665 449.166 164.629L448.747 164.605ZM447.393 153.943C446.442 154.999 445.847 156.328 445.692 157.741C445.297 160.772 446.71 163.467 448.855 163.731C450.999 163.994 453.06 161.766 453.467 158.723C453.672 157.321 453.438 155.889 452.796 154.626C452.564 154.129 452.215 153.695 451.779 153.361C451.343 153.027 450.833 152.804 450.292 152.709H449.969C449.477 152.724 448.994 152.841 448.55 153.053C448.107 153.266 447.712 153.569 447.393 153.943Z" fill="#2563EB"/>
<path d="M457.756 159.334L458.391 158.747C457.528 157.813 455.444 156.435 453.671 157.896L454.21 158.555C455.803 157.214 457.636 159.226 457.756 159.334Z" fill="#2563EB"/>
<path d="M485.873 164.653L486.687 164.366C486.544 163.982 485.298 160.676 483.441 160.113C481.584 159.55 470.167 159.178 469.676 159.154V160.017C472.982 160.137 481.883 160.532 483.213 160.939C484.543 161.347 485.549 163.743 485.873 164.653Z" fill="#2563EB"/>
<path d="M478.302 163.898C478.302 163.898 483.405 156.938 486.58 158.771C489.754 160.604 485.801 170.751 482.003 172.105C481.527 172.308 481.015 172.412 480.497 172.411C479.98 172.411 479.468 172.305 478.992 172.102C478.516 171.898 478.087 171.6 477.729 171.226C477.372 170.852 477.094 170.409 476.912 169.924L478.302 163.898Z" fill="#EB9481"/>
<path d="M485.382 161.658V161.754C482.722 162.772 481.273 165.192 480.242 167.744C480.401 167.483 480.615 167.259 480.869 167.089C481.123 166.919 481.411 166.806 481.713 166.758C482.015 166.71 482.324 166.728 482.618 166.812C482.913 166.895 483.185 167.042 483.417 167.241C483.489 167.241 483.417 167.397 483.345 167.373C482.883 167.22 482.386 167.212 481.92 167.349C481.453 167.486 481.04 167.762 480.734 168.139C480.237 168.787 479.804 169.481 479.44 170.212C479.32 170.451 478.889 170.308 478.984 170.044C479.032 166.522 481.752 161.922 485.382 161.658Z" fill="#263238"/>
<path d="M487.143 158.855C486.782 158.59 486.361 158.418 485.918 158.355C485.475 158.293 485.023 158.341 484.603 158.495C484.483 158.495 484.471 158.603 484.603 158.567C485.107 158.418 485.644 158.418 486.148 158.567C486.568 158.699 487.754 159.19 487.742 161.67C487.559 163.629 487.019 165.537 486.148 167.301C486.148 167.361 486.22 167.421 486.256 167.361C486.836 166.257 487.301 165.097 487.646 163.898C487.981 162.557 488.425 159.945 487.143 158.855Z" fill="#263238"/>
<path d="M480.003 195.358C479.152 196.304 478.397 197.299 477.499 198.197C476.595 199.109 475.643 199.973 474.648 200.785C472.722 202.361 470.634 203.726 468.418 204.858C466.128 206.221 463.463 206.817 460.811 206.559C459.608 206.355 458.484 205.826 457.56 205.03C456.635 204.234 455.945 203.201 455.563 202.043C454.449 199.048 455.204 195.861 455.935 192.722C455.935 192.614 455.791 192.567 455.755 192.722C454.929 195.945 454.306 198.592 454.869 201.623C455.053 202.806 455.53 203.924 456.256 204.876C456.981 205.828 457.934 206.584 459.026 207.074C464.333 209.279 469.987 205.457 473.917 202.186C475.067 201.226 476.159 200.198 477.187 199.108C478.288 197.999 479.29 196.796 480.182 195.514C480.218 195.37 480.075 195.274 480.003 195.358Z" fill="#263238"/>
<path d="M523.849 311.72H94.3186V326.994H523.849V311.72Z" fill="#37474F"/>
<path d="M523.849 321.028H94.3186V326.994H523.849V321.028Z" fill="#455A64"/>
<path d="M109.725 541.316H103.555L121.525 326.994H137.279L109.725 541.316Z" fill="#455A64"/>
<path d="M137.279 326.994L135.434 341.334H120.327L121.525 326.994H137.279Z" fill="#263238"/>
<path d="M508.443 541.316H514.613L496.643 326.994H480.889L508.443 541.316Z" fill="#455A64"/>
<path d="M480.889 326.994L482.734 341.334H497.841L496.643 326.994H480.889Z" fill="#263238"/>
<path d="M359.795 311.708H426.153V306.544L359.795 304.4V311.708Z" fill="#455A64"/>
<path d="M307.634 311.612H351.421C355.159 311.612 349.744 300.974 336.111 296.9C322.478 292.827 303.346 307.622 307.634 311.612Z" fill="#37474F"/>
<path d="M324.814 311.612C324.102 309.373 323.145 307.22 321.963 305.191C321.378 304.198 320.696 303.267 319.926 302.411C319.131 301.547 318.269 300.746 317.35 300.015C318.536 300.364 319.635 300.96 320.573 301.764C321.525 302.57 322.335 303.53 322.969 304.603C323.608 305.669 324.096 306.818 324.419 308.018C324.754 309.184 324.888 310.4 324.814 311.612Z" fill="#263238"/>
<path d="M319.626 301.489C317.326 302.986 315.026 304.328 312.87 305.873C311.791 306.621 310.773 307.455 309.827 308.365C308.856 309.265 308.106 310.376 307.635 311.612C307.665 310.19 308.195 308.824 309.132 307.754C310.002 306.66 311.027 305.7 312.175 304.903C313.309 304.11 314.512 303.42 315.769 302.842C317.003 302.256 318.296 301.802 319.626 301.489Z" fill="#263238"/>
<path d="M276.223 291.018H382.641L365.725 211.794H259.295L276.223 291.018Z" fill="#455A64"/>
<path d="M272.293 291.018H378.712L361.784 211.794H255.366L272.293 291.018Z" fill="#37474F"/>
<path d="M329.69 262.614H332.182L328.396 244.847H325.904L329.69 262.614Z" fill="#263238"/>
<path d="M324.766 262.614H327.258L323.472 244.847H320.968L324.766 262.614Z" fill="#263238"/>
<path d="M319.842 262.614H322.334L318.548 244.847H316.044L319.842 262.614Z" fill="#263238"/>
<path d="M314.918 262.614H317.41L313.624 244.847H311.121L314.918 262.614Z" fill="#263238"/>
<path d="M309.982 262.614H312.486L308.701 244.847H306.197L309.982 262.614Z" fill="#263238"/>
<path d="M305.059 262.614H307.563L303.765 244.847H301.273L305.059 262.614Z" fill="#263238"/>
<path d="M300.135 262.614H302.639L298.841 244.847H296.349L300.135 262.614Z" fill="#263238"/>
<path d="M302.387 311.72H354.728V307.646L302.387 305.957V311.72Z" fill="#455A64"/>
<path d="M288.155 311.708H316.26L333.188 267.31H305.083L288.155 311.708Z" fill="#455A64"/>
<path d="M283.531 311.708H311.636L328.552 267.31H300.459L283.531 311.708Z" fill="#263238"/>
<path d="M278.415 148.145C278.415 148.145 271.946 200.366 261.164 212.118C248.297 226.206 238.965 224.098 233.766 231.418C228.578 224.134 219.234 226.206 206.355 212.106C195.573 200.354 189.128 148.133 189.128 148.133C217.377 134.428 233.766 119.057 233.766 119.057C234.269 119.548 250.598 134.655 278.415 148.145Z" fill="#2563EB"/>
<path opacity="0.2" d="M233.766 119.081V231.418C228.578 224.134 219.234 226.206 206.355 212.106C195.573 200.354 189.128 148.133 189.128 148.133C217.377 134.428 233.766 119.057 233.766 119.057V119.081Z" fill="black"/>
<path opacity="0.1" d="M278.415 148.145C278.415 148.145 271.946 200.366 261.164 212.118C248.297 226.206 238.965 224.098 233.766 231.418V119.081C234.269 119.548 250.598 134.655 278.415 148.145Z" fill="black"/>
<path d="M271.479 152.35C271.479 152.35 265.956 196.472 256.923 206.391C246.045 218.371 238.15 216.562 233.754 222.708C229.369 216.562 221.474 218.324 210.596 206.391C201.539 196.46 196.041 152.35 196.041 152.35C219.905 140.765 233.754 127.791 233.754 127.791C233.754 127.791 247.626 140.765 271.479 152.35Z" fill="#2563EB"/>
<path d="M245.075 168.99H222.445V189.524H245.075V168.99Z" fill="white"/>
<path d="M242.811 175.315H240.51V166.151C240.437 164.409 239.694 162.764 238.436 161.558C237.178 160.352 235.502 159.678 233.76 159.678C232.017 159.678 230.342 160.352 229.084 161.558C227.826 162.764 227.082 164.409 227.009 166.151V175.315H224.709V166.151C224.794 163.807 225.785 161.588 227.473 159.96C229.161 158.333 231.415 157.423 233.76 157.423C236.105 157.423 238.358 158.333 240.046 159.96C241.734 161.588 242.725 163.807 242.811 166.151V175.315Z" fill="white"/>
<path d="M234.724 179.508L235.671 184.001H231.645L232.592 179.508C232.221 179.277 231.936 178.931 231.779 178.523C231.622 178.115 231.603 177.667 231.723 177.247C231.844 176.827 232.098 176.457 232.447 176.194C232.796 175.931 233.221 175.789 233.658 175.789C234.095 175.789 234.52 175.931 234.869 176.194C235.218 176.457 235.472 176.827 235.593 177.247C235.713 177.667 235.693 178.115 235.537 178.523C235.38 178.931 235.095 179.277 234.724 179.508Z" fill="#37474F"/>
<path d="M159.849 292.18H94.3186V236.761L127.072 215.951L159.849 236.761V292.18Z" fill="#2563EB"/>
<path opacity="0.2" d="M159.849 292.18H94.3186V236.761L127.072 215.951L159.849 236.761V292.18Z" fill="black"/>
<path d="M156.147 283.363H98.0085V208.74H141.172L156.147 222.96V283.363Z" fill="#EBEBEB"/>
<path d="M141.172 208.74L156.147 222.96H141.172V208.74Z" fill="#DBDBDB"/>
<path d="M103.687 223.175H136.009V221.259H103.687V223.175Z" fill="#DBDBDB"/>
<path d="M103.687 228.015H136.009V226.099H103.687V228.015Z" fill="#DBDBDB"/>
<path d="M103.687 232.843H136.009V230.927H103.687V232.843Z" fill="#DBDBDB"/>
<path d="M103.687 237.695H151.044V235.778H103.687V237.695Z" fill="#DBDBDB"/>
<path d="M103.687 242.523H151.044V240.606H103.687V242.523Z" fill="#DBDBDB"/>
<path d="M103.687 247.363H151.044V245.446H103.687V247.363Z" fill="#DBDBDB"/>
<path d="M103.687 252.191H151.044V250.274H103.687V252.191Z" fill="#DBDBDB"/>
<path d="M103.687 257.043H151.044V255.126H103.687V257.043Z" fill="#DBDBDB"/>
<path d="M103.687 261.871H151.044V259.954H103.687V261.871Z" fill="#DBDBDB"/>
<path d="M103.687 266.711H151.044V264.794H103.687V266.711Z" fill="#DBDBDB"/>
<path d="M103.687 271.539H151.044V269.622H103.687V271.539Z" fill="#DBDBDB"/>
<path d="M103.687 276.379H151.044V274.462H103.687V276.379Z" fill="#DBDBDB"/>
<path d="M159.849 250.634V292.18H94.3186V250.634C97.1339 252.227 99.9013 253.892 102.705 255.533C105.508 257.175 108.251 258.852 111.007 260.553C114.082 262.422 117.148 264.315 120.207 266.232H120.315L120.231 266.303L127.108 270.604C129.396 269.167 131.684 267.717 133.984 266.303L133.901 266.232H133.996C137.063 264.327 140.118 262.434 143.197 260.553C145.952 258.868 148.72 257.199 151.499 255.545C154.267 253.892 157.034 252.227 159.849 250.634Z" fill="#2563EB"/>
<path d="M159.849 250.634C157.202 252.49 154.506 254.228 151.835 256.096C149.163 257.965 146.456 259.69 143.748 261.452C141.041 263.213 138.082 265.129 135.254 266.95L135.003 267.13L127.455 271.922L127.072 272.15L126.713 271.922C124.197 270.325 121.685 268.727 119.177 267.13C119.085 267.081 118.997 267.025 118.914 266.962C116.062 265.141 113.235 263.368 110.408 261.452C107.58 259.535 105.017 257.858 102.333 256.108C99.6497 254.359 96.9662 252.514 94.3186 250.646C97.1339 252.239 99.9013 253.904 102.705 255.545C105.508 257.187 108.251 258.864 111.007 260.565C114.082 262.434 117.148 264.327 120.207 266.244L127.084 270.544C129.372 269.107 131.66 267.657 133.96 266.244C137.027 264.339 140.082 262.446 143.161 260.565C145.916 258.88 148.684 257.211 151.463 255.557C154.267 253.892 157.034 252.227 159.849 250.634Z" fill="white"/>
<path d="M120.291 266.172L120.207 266.244L119.177 267.118C117.536 268.508 115.847 269.838 114.134 271.131C112.049 272.725 109.917 274.246 107.772 275.756C105.628 277.265 103.447 278.727 101.231 280.14C99.0148 281.554 96.7865 282.944 94.4744 284.214C96.463 282.476 98.5356 280.847 100.62 279.266C102.705 277.684 104.849 276.139 106.981 274.63C109.114 273.12 111.318 271.658 113.523 270.245C115.284 269.047 117.117 267.993 118.914 266.95L120.183 266.232L120.291 266.172Z" fill="white"/>
<path d="M159.681 284.214C157.369 282.944 155.129 281.554 152.925 280.14C150.72 278.727 148.552 277.241 146.384 275.756C144.215 274.27 142.107 272.725 140.01 271.131C138.309 269.838 136.632 268.52 135.003 267.13C134.643 266.831 134.296 266.543 133.96 266.244L133.876 266.172H133.972L135.254 266.902C137.087 267.945 138.848 269.059 140.633 270.197C142.849 271.611 145.018 273.084 147.174 274.582C149.331 276.079 151.451 277.625 153.536 279.218C155.62 280.811 157.693 282.476 159.681 284.214Z" fill="white"/>
<path d="M159.681 302.806C165.636 302.806 170.463 297.979 170.463 292.024C170.463 286.07 165.636 281.242 159.681 281.242C153.727 281.242 148.899 286.07 148.899 292.024C148.899 297.979 153.727 302.806 159.681 302.806Z" fill="#37474F"/>
<path d="M165.025 289.305H154.338V299.009H165.025V289.305Z" fill="white"/>
<path d="M163.958 292.312H162.928V287.975C162.878 287.162 162.52 286.399 161.927 285.841C161.334 285.283 160.55 284.972 159.735 284.972C158.921 284.972 158.137 285.283 157.544 285.841C156.951 286.399 156.593 287.162 156.543 287.975V292.312H155.464V287.975C155.434 287.395 155.521 286.815 155.722 286.27C155.923 285.726 156.233 285.227 156.632 284.806C157.032 284.385 157.513 284.049 158.047 283.82C158.58 283.59 159.155 283.472 159.735 283.472C160.316 283.472 160.891 283.59 161.424 283.82C161.958 284.049 162.439 284.385 162.839 284.806C163.238 285.227 163.548 285.726 163.749 286.27C163.949 286.815 164.037 287.395 164.006 287.975L163.958 292.312Z" fill="white"/>
<path d="M160.137 294.277L160.592 296.397H158.687L159.13 294.277C158.996 294.19 158.885 294.071 158.808 293.931C158.731 293.791 158.689 293.634 158.687 293.474C158.684 293.306 158.725 293.139 158.806 292.992C158.887 292.844 159.006 292.72 159.15 292.633C159.294 292.546 159.459 292.499 159.627 292.496C159.796 292.493 159.962 292.534 160.11 292.615C160.257 292.697 160.38 292.816 160.467 292.961C160.554 293.105 160.601 293.27 160.604 293.438C160.606 293.607 160.565 293.773 160.483 293.92C160.401 294.067 160.281 294.19 160.137 294.277Z" fill="#37474F"/>
<path d="M208.644 182.971H98.6433V199.647H208.644V182.971Z" fill="white"/>
<path d="M209.231 200.246H98.0444V182.372H209.231V200.246ZM99.2424 199.048H208.033V183.57H99.2424V199.048Z" fill="#EBEBEB"/>
<path d="M95.7083 202.091C101.663 202.091 106.49 197.263 106.49 191.309C106.49 185.354 101.663 180.527 95.7083 180.527C89.7535 180.527 84.9263 185.354 84.9263 191.309C84.9263 197.263 89.7535 202.091 95.7083 202.091Z" fill="#37474F"/>
<path d="M101.051 188.577H90.3652V198.281H101.051V188.577Z" fill="white"/>
<path d="M99.9851 191.572H98.8949V187.247C98.8949 186.402 98.5592 185.592 97.9616 184.994C97.364 184.396 96.5534 184.061 95.7083 184.061C94.8631 184.061 94.0526 184.396 93.4549 184.994C92.8573 185.592 92.5216 186.402 92.5216 187.247V191.572H91.4314V187.247C91.4314 186.113 91.882 185.025 92.6841 184.223C93.4861 183.421 94.574 182.971 95.7083 182.971C96.8426 182.971 97.9304 183.421 98.7325 184.223C99.5345 185.025 99.9851 186.113 99.9851 187.247V191.572Z" fill="white"/>
<path d="M96.1635 193.549L96.6067 195.681H94.7019L95.1572 193.549C95.0175 193.467 94.9019 193.349 94.822 193.209C94.7421 193.068 94.7007 192.908 94.7019 192.746C94.7282 192.512 94.8399 192.296 95.0156 192.139C95.1913 191.982 95.4187 191.895 95.6543 191.895C95.89 191.895 96.1174 191.982 96.2931 192.139C96.4688 192.296 96.5804 192.512 96.6067 192.746C96.6069 192.907 96.5664 193.064 96.4888 193.205C96.4113 193.345 96.2993 193.464 96.1635 193.549Z" fill="#37474F"/>
<path d="M117.716 187.763H116.518V195.394H117.716V187.763Z" fill="#37474F"/>
<path d="M120.926 190.973H113.295V192.171H120.926V190.973Z" fill="#37474F"/>
<path d="M119.387 188.451L113.991 193.847L114.838 194.694L120.234 189.298L119.387 188.451Z" fill="#37474F"/>
<path d="M114.847 188.451L114 189.298L119.396 194.694L120.243 193.847L114.847 188.451Z" fill="#37474F"/>
<path d="M130.666 187.763H129.468V195.394H130.666V187.763Z" fill="#37474F"/>
<path d="M133.889 190.973H126.257V192.171H133.889V190.973Z" fill="#37474F"/>
<path d="M132.35 188.45L126.954 193.846L127.801 194.693L133.198 189.297L132.35 188.45Z" fill="#37474F"/>
<path d="M127.801 188.458L126.954 189.305L132.35 194.701L133.198 193.854L127.801 188.458Z" fill="#37474F"/>
<path d="M143.628 187.763H142.43V195.394H143.628V187.763Z" fill="#37474F"/>
<path d="M146.839 190.973H139.208V192.171H146.839V190.973Z" fill="#37474F"/>
<path d="M145.294 188.457L139.897 193.853L140.745 194.7L146.141 189.304L145.294 188.457Z" fill="#37474F"/>
<path d="M140.753 188.457L139.906 189.304L145.302 194.7L146.149 193.853L140.753 188.457Z" fill="#37474F"/>
<path d="M156.591 187.763H155.393V195.394H156.591V187.763Z" fill="#37474F"/>
<path d="M159.801 190.973H152.17V192.171H159.801V190.973Z" fill="#37474F"/>
<path d="M158.257 188.456L152.861 193.852L153.708 194.699L159.104 189.303L158.257 188.456Z" fill="#37474F"/>
<path d="M153.716 188.456L152.869 189.303L158.265 194.699L159.112 193.852L153.716 188.456Z" fill="#37474F"/>
<path d="M169.541 187.763H168.343V195.394H169.541V187.763Z" fill="#37474F"/>
<path d="M172.764 190.973H165.132V192.171H172.764V190.973Z" fill="#37474F"/>
<path d="M171.22 188.455L165.824 193.851L166.671 194.698L172.067 189.302L171.22 188.455Z" fill="#37474F"/>
<path d="M166.671 188.463L165.824 189.311L171.22 194.707L172.067 193.86L166.671 188.463Z" fill="#37474F"/>
<path d="M182.503 187.763H181.305V195.394H182.503V187.763Z" fill="#37474F"/>
<path d="M185.714 190.973H178.083V192.171H185.714V190.973Z" fill="#37474F"/>
<path d="M184.175 188.45L178.779 193.847L179.626 194.694L185.022 189.298L184.175 188.45Z" fill="#37474F"/>
<path d="M179.635 188.45L178.788 189.298L184.184 194.694L185.031 193.847L179.635 188.45Z" fill="#37474F"/>
<path d="M115.667 447.944C115.667 447.944 89.1071 441.954 74.5514 428.513C59.9957 415.071 51.8733 391.075 51.8733 391.075C61.966 393.023 71.9159 395.648 81.6556 398.934C84.0516 401.474 88.556 406.709 90.6645 411.669C90.9121 408.64 90.9361 405.597 90.7364 402.564C94.1333 404.038 97.3134 405.969 100.189 408.302C112.252 418.833 115.667 447.944 115.667 447.944Z" fill="#2563EB"/>
<path d="M68.4536 402.756C64.8596 400.24 61.1458 397.832 57.5398 395.304C57.5054 395.27 57.4834 395.226 57.4773 395.178C57.4712 395.13 57.4814 395.081 57.5063 395.04C57.5312 394.998 57.5693 394.966 57.6145 394.949C57.6597 394.932 57.7093 394.93 57.7555 394.945C64.596 399.03 71.3528 403.403 77.8699 407.979C80.1461 409.572 82.3863 411.237 84.5907 412.927L84.1354 412.136C83.3328 410.806 82.4942 409.5 81.6556 408.195C79.99 405.529 78.1024 403.008 76.013 400.659C75.9411 400.575 76.013 400.455 76.1448 400.539C78.2173 402.935 80.2779 405.331 82.1348 407.811C83.0333 409.009 83.8599 410.207 84.6506 411.537C85.0699 412.196 85.4652 412.867 85.8486 413.538L86.2439 414.22C89.6822 416.916 93.0246 419.731 96.2113 422.702C98.188 424.547 100.081 426.44 101.914 428.405C100.895 425.194 99.9969 421.948 98.7989 418.821C98.7989 418.713 98.9427 418.677 98.9786 418.821C100.177 422.139 101.375 425.47 102.297 428.884C104.334 431.072 106.27 433.353 108.107 435.725C108.107 435.581 108.107 435.437 108.012 435.293C107.712 434.095 107.401 432.789 107.065 431.556C106.418 429.16 105.711 426.764 104.897 424.368C103.359 419.471 100.922 414.904 97.7088 410.902C97.6369 410.806 97.7088 410.686 97.8405 410.77C103.028 416.916 106.071 424.284 108.012 432.011C108.287 433.149 108.563 434.275 108.814 435.413C108.958 436.012 109.114 436.611 109.222 437.246C110.024 438.336 110.803 439.426 111.618 440.553C116.145 447.475 119.913 454.865 122.855 462.596C126.179 471.274 129.022 480.129 131.373 489.119C131.373 489.299 131.157 489.359 131.097 489.191C125.898 473.617 120.603 457.888 111.701 444.003C109.826 441.071 107.802 438.236 105.64 435.509C101.241 435.226 96.8984 434.364 92.7251 432.945C88.1681 431.409 83.8215 429.308 79.7867 426.692C77.5032 425.139 75.3 423.472 73.1857 421.696C73.173 421.689 73.1618 421.68 73.1532 421.669C73.1445 421.657 73.1386 421.644 73.1357 421.63C73.1329 421.616 73.1332 421.601 73.1367 421.587C73.1403 421.573 73.1468 421.56 73.156 421.549C73.1652 421.538 73.1768 421.53 73.1898 421.524C73.2029 421.518 73.2171 421.515 73.2314 421.515C73.2458 421.515 73.2599 421.519 73.2727 421.525C73.2855 421.532 73.2967 421.541 73.3055 421.552C77.0132 424.534 81.1076 427.001 85.4772 428.884C89.7701 430.851 94.2598 432.357 98.8708 433.376C100.836 433.808 102.824 434.119 104.861 434.395C102.404 431.36 99.7925 428.453 97.0379 425.685C96.1394 424.799 95.2169 423.936 94.2945 423.074C91.1972 420.907 87.9091 419.026 84.4709 417.455C80.1221 415.347 75.8453 413.118 71.5325 410.926C69.1365 409.728 66.7405 408.422 64.2366 407.236C64.1408 407.176 64.2366 407.032 64.3325 407.08C68.7052 409.189 73.1378 411.154 77.5105 413.178C81.6675 415.071 85.8965 416.976 89.8379 419.168L90.3411 419.468C86.7391 416.337 83.0293 413.338 79.2116 410.471C75.6536 407.859 72.0835 405.259 68.4536 402.756Z" fill="#263238"/>
<path d="M69.9631 416.437C72.1195 417.383 74.3238 418.222 76.4562 419.228C78.5887 420.234 80.7331 421.456 82.8296 422.69C82.9134 422.75 82.8296 422.87 82.7337 422.834C80.6253 421.816 78.4808 420.869 76.3843 419.815C74.2878 418.761 72.1075 417.575 69.9032 416.616C69.8073 416.569 69.8552 416.389 69.9631 416.437Z" fill="#263238"/>
<path d="M201.935 314.116C197.028 320.445 194.252 328.166 194.004 336.171C193.908 338.567 194.292 341.861 194.567 345.755C184.66 351.014 177.232 360.598 177.232 360.598C182.863 357.22 190.578 355.806 194.747 356.405C194.611 359.071 194.271 361.722 193.729 364.336C191.896 364.228 188.337 364.48 182.467 366.564C185.956 366.528 189.415 367.213 192.626 368.577C187.894 383.648 173.818 399.114 134.967 405.715C130.839 387.236 133.27 367.896 141.843 351.014C153.488 328.096 201.935 314.116 201.935 314.116Z" fill="#2563EB"/>
<path d="M121.513 470.119C122.184 463.682 123.022 457.265 124.029 450.867C125.998 438.069 128.613 425.377 131.864 412.843C133.387 406.958 135.259 401.17 137.47 395.508C137.36 394.473 137.316 393.433 137.339 392.393C137.339 391.195 137.339 389.901 137.339 388.667C137.339 386.175 137.458 383.687 137.698 381.204C138.095 376.29 138.896 371.418 140.094 366.636C140.801 363.869 141.627 361.149 142.49 358.406C142.49 358.298 142.694 358.346 142.658 358.406C141.375 363.183 140.418 368.042 139.794 372.949C139.101 377.787 138.665 382.657 138.489 387.541C138.489 388.871 138.417 390.201 138.417 391.542C138.417 392.105 138.417 392.68 138.417 393.255C140.32 388.63 142.504 384.125 144.958 379.766C148.907 372.822 153.351 366.172 158.256 359.867C158.268 359.133 158.377 358.404 158.579 357.699C158.759 356.824 158.95 355.962 159.142 355.099C159.537 353.326 159.981 351.505 160.472 349.804C161.43 346.282 162.712 342.88 163.814 339.405C163.814 339.286 164.018 339.345 163.982 339.405C162.952 342.844 162.269 346.414 161.49 349.912C161.095 351.649 160.723 353.386 160.292 355.123C160.101 355.986 159.909 356.848 159.729 357.723V357.914C161.299 355.938 162.904 353.973 164.521 352.056C171.937 343.359 180.095 335.284 188.266 327.366C189.272 326.383 190.302 325.425 191.32 324.454C191.339 324.443 191.36 324.438 191.382 324.441C191.403 324.443 191.423 324.453 191.438 324.468C191.453 324.484 191.463 324.503 191.466 324.525C191.468 324.546 191.463 324.568 191.452 324.586C183.629 332.756 175.878 341.011 168.618 349.648C166.893 351.709 165.18 353.781 163.503 355.89C164.389 355.291 165.276 354.692 166.15 354.141C168.415 352.655 170.703 351.218 173.063 349.9C175.423 348.582 177.795 347.288 180.251 346.078C182.707 344.868 185.414 343.838 187.81 342.484C187.918 342.424 188.002 342.592 187.906 342.64C185.449 343.775 183.079 345.088 180.814 346.569C178.418 347.971 176.022 349.385 173.758 350.858C171.494 352.332 169.181 353.733 166.917 355.207C165.024 356.405 163.167 357.771 161.203 358.909C156.697 364.694 152.541 370.743 148.755 377.023C146.402 380.978 144.255 385.053 142.322 389.23L143.712 388.631L147.306 387.05C149.594 386.032 151.894 385.037 154.182 384.043C158.543 382.15 162.964 380.449 167.241 378.328C169.649 377.197 171.979 375.904 174.213 374.459C174.309 374.387 174.393 374.543 174.309 374.615C166.342 380.101 157.405 383.971 148.588 387.876L144.766 389.566C143.712 390.033 142.658 390.548 141.579 390.955C138.973 396.785 136.775 402.79 135.002 408.925C131.551 421.301 128.752 433.849 126.616 446.519C124.388 459.205 122.879 471.988 121.717 484.855C121.561 486.46 121.417 488.053 121.237 489.647C121.237 489.78 121.184 489.908 121.09 490.002C120.996 490.097 120.868 490.15 120.734 490.15C120.601 490.15 120.473 490.097 120.378 490.002C120.284 489.908 120.231 489.78 120.231 489.647C120.171 483.117 120.83 476.588 121.513 470.119Z" fill="#263238"/>
<path d="M145.149 362.814C145.868 358.861 146.923 355.003 147.989 351.134C147.989 351.014 148.18 351.074 148.156 351.134C147.174 354.931 146.467 358.801 145.76 362.659C145.054 366.516 144.383 370.529 143.832 374.483C143.832 374.543 143.724 374.555 143.724 374.483C143.984 370.57 144.46 366.675 145.149 362.814Z" fill="#263238"/>
<path d="M161.898 373.524C164.6 371.73 167.427 370.129 170.355 368.732C171.769 368.002 173.207 367.307 174.632 366.612C176.058 365.917 177.651 365.294 179.113 364.563C179.133 364.558 179.153 364.56 179.172 364.568C179.191 364.575 179.207 364.589 179.218 364.606C179.229 364.623 179.233 364.644 179.232 364.664C179.23 364.684 179.222 364.704 179.209 364.719C177.783 365.426 176.441 366.289 175.04 367.055C173.638 367.822 172.176 368.637 170.727 369.451C167.887 370.973 165.096 372.662 162.113 373.908C162.062 373.936 162.002 373.944 161.946 373.928C161.89 373.912 161.842 373.875 161.814 373.824C161.785 373.773 161.778 373.713 161.794 373.657C161.809 373.601 161.847 373.553 161.898 373.524Z" fill="#263238"/>
<path opacity="0.1" d="M115.188 401.941C115.188 401.941 90.6047 396.071 79.3316 379.586C68.5496 363.845 65.0634 337.009 64.7878 334.649C65.2311 336.806 70.3106 360.263 87.0347 371.188C99.8413 379.562 112.217 386.439 115.188 401.941Z" fill="#263238"/>
<path d="M115.188 401.941C115.188 401.941 90.6046 396.071 79.3314 379.586C68.5494 363.845 65.0632 337.009 64.7877 334.649C64.783 334.594 64.783 334.537 64.7877 334.482C64.7877 334.482 76.576 351.254 88.9633 355.506C101.351 359.759 118.734 374.555 115.188 401.941Z" fill="#2563EB"/>
<path d="M69.1245 343.718C71.3082 348.232 73.8312 352.573 76.6719 356.705C79.5384 360.627 82.9375 364.131 86.771 367.115C90.1134 369.763 93.6475 372.171 97.0259 374.758L96.942 374.639C96.3071 373.704 95.6362 372.782 94.9294 371.895C93.5277 370.098 91.9943 368.397 90.4369 366.72C87.394 363.401 84.2672 360.155 81.5358 356.573C80.0106 354.595 78.69 352.468 77.5943 350.223C77.5943 350.115 77.7141 350.056 77.7621 350.223C81.7514 358.525 89.7421 363.845 95.3966 370.853C96.2032 371.852 96.9589 372.892 97.6608 373.968C98.2223 374.744 98.6964 375.579 99.0745 376.46C102.186 378.952 104.999 381.794 107.46 384.929C107.248 383.311 106.92 381.709 106.478 380.137C105.904 377.952 105.025 375.859 103.866 373.92C103.866 373.824 103.962 373.716 104.022 373.812C105.212 375.759 106.173 377.838 106.885 380.006C107.413 381.717 107.727 383.488 107.82 385.277C109.034 386.926 110.142 388.651 111.138 390.44C111.031 389.913 110.935 389.386 110.827 388.859C110.348 386.463 109.809 383.971 109.174 381.563C108.014 376.666 106.021 372.006 103.279 367.786C103.274 367.766 103.276 367.745 103.284 367.726C103.291 367.708 103.305 367.692 103.322 367.681C103.34 367.67 103.36 367.665 103.38 367.667C103.401 367.669 103.42 367.677 103.435 367.69C106.251 371.867 108.454 376.426 109.976 381.228C110.767 383.624 111.39 386.091 111.941 388.571C112.217 389.769 112.456 390.967 112.684 392.165C112.804 392.788 112.947 393.435 113.043 394.082C115.485 399.429 117.383 405.008 118.71 410.734C121.128 420.969 122.881 431.349 123.957 441.81C125.22 452.761 125.784 463.781 125.646 474.803C125.646 476.181 125.55 477.559 125.466 478.948C125.466 479.296 124.915 479.356 124.903 478.948C124.664 473.498 124.52 468.047 124.197 462.596C123.873 457.145 123.394 451.706 122.819 446.267C121.698 435.594 119.986 424.991 117.691 414.508C115.703 405.523 113.115 396.478 108.203 388.607C105.761 384.692 102.777 381.142 99.338 378.065C95.8998 374.974 92.15 372.267 88.556 369.403C84.8754 366.608 81.5343 363.391 78.6007 359.819C75.5603 355.858 72.9085 351.614 70.6819 347.144C70.1068 346.03 69.4839 344.928 68.9208 343.814C68.9088 343.718 69.0646 343.622 69.1245 343.718Z" fill="#263238"/>
<path d="M73.3654 347.324C74.9692 350.64 76.7984 353.842 78.8403 356.908C78.8403 356.98 78.7684 357.052 78.7205 356.98C76.6137 353.944 74.7624 350.738 73.1857 347.396C73.1378 347.276 73.3055 347.216 73.3654 347.324Z" fill="#263238"/>
<path d="M205.361 391.075C205.361 391.075 205.756 425.997 184.875 436.072C163.994 446.147 152.793 437.761 138.608 441.14C139.159 440.313 149.283 425.757 165.396 421.744C181.976 417.587 200.341 405.619 205.361 391.075Z" fill="#2563EB"/>
<path opacity="0.1" d="M205.361 391.075C205.361 391.075 205.756 425.997 184.875 436.072C163.994 446.147 152.793 437.761 138.608 441.14C146.107 437.575 154.12 435.214 162.353 434.143C175.543 432.478 200.689 423.948 205.361 391.075Z" fill="black"/>
<path d="M137.231 441.763C139.715 439.498 142.51 437.602 145.533 436.132C145.988 435.916 146.443 435.749 146.899 435.557C147.118 435.276 147.354 435.008 147.606 434.754C148.225 434.095 148.881 433.471 149.57 432.885C150.875 431.752 152.278 430.737 153.763 429.854C157.225 427.818 161.023 426.392 164.545 424.511C164.556 424.506 164.567 424.502 164.578 424.501C164.59 424.5 164.601 424.501 164.613 424.504C164.624 424.508 164.634 424.513 164.643 424.521C164.652 424.528 164.66 424.537 164.665 424.547C164.671 424.557 164.674 424.569 164.675 424.58C164.676 424.592 164.675 424.603 164.672 424.615C164.669 424.626 164.663 424.636 164.656 424.645C164.648 424.654 164.639 424.662 164.629 424.667C162.88 425.578 161.191 426.572 159.49 427.566C157.789 428.561 156.147 429.459 154.53 430.489C153.077 431.42 151.696 432.457 150.397 433.592C150.037 433.916 149.678 434.263 149.331 434.622C151.638 433.839 153.995 433.21 156.387 432.742C160.208 431.975 164.066 431.424 167.888 430.609C169.759 430.213 171.607 429.713 173.422 429.112C175.16 427.722 176.885 426.332 178.526 424.823C180.518 423.007 182.328 421.001 183.929 418.833C184.001 418.737 184.157 418.833 184.085 418.929C181.551 422.357 178.682 425.523 175.519 428.381C176.417 428.033 177.316 427.674 178.19 427.267C185.362 424.049 191.518 418.933 195.993 412.471C196.065 412.376 196.22 412.471 196.148 412.555C192.358 418.103 187.464 422.809 181.772 426.38C178.915 428.163 175.859 429.606 172.668 430.681C168.969 431.835 165.194 432.728 161.371 433.353C157.623 433.967 153.924 434.848 150.301 435.988C146.971 437.116 143.841 438.766 141.029 440.876C135.696 445.016 131.405 450.345 128.497 456.438C124.544 464.357 122.663 473.21 121.609 481.967C121.609 482.339 120.986 482.339 121.01 481.967C121.992 467.22 125.922 451.957 137.231 441.763Z" fill="#263238"/>
<path d="M161.466 430.37C162.559 428.743 164.031 427.406 165.755 426.476C167.737 425.45 169.477 424.012 170.859 422.259C170.931 422.163 171.086 422.259 171.014 422.355C169.762 423.955 168.238 425.322 166.51 426.392C164.611 427.395 162.939 428.777 161.598 430.453C161.538 430.537 161.407 430.453 161.466 430.37Z" fill="#263238"/>
<path d="M150.385 467.531L149.438 486.735L146.527 545.401H102.716L99.8053 486.735L98.8589 467.531H150.385Z" fill="#37474F"/>
<path d="M150.385 467.531L149.438 486.735H99.8053L98.8589 467.531H150.385Z" fill="#263238"/>
<path d="M153.452 459.517H95.78V477.834H153.452V459.517Z" fill="#37474F"/>
</svg>
