<svg width="102" height="24" viewBox="0 0 102 24" fill="none" xmlns="http://www.w3.org/2000/svg">
<path d="M2.92164 0.717542C2.40778 -0.0538974 1.40021 -0.230686 0.674765 0.321108C-0.0506843 0.872901 -0.216933 1.93899 0.301965 2.71043L8.06024 14.2659V22.2857C8.06024 23.2339 8.78065 24 9.67235 24C10.564 24 11.2845 23.2339 11.2845 22.2857V14.2659L19.0427 2.71043C19.5616 1.93899 19.3903 0.867544 18.6699 0.321108C17.9495 -0.225328 16.9369 -0.0538974 16.4231 0.717542L9.67235 10.7623L2.92164 0.717542Z" fill="white"/>
<path d="M12.4178 8.38095C12.4178 6.48988 13.0277 5.33333 14.8059 5.33333L17.6716 0C22.1245 0 23.9999 2.81984 23.9999 7.55556C23.9999 12.2913 20.3932 16.127 15.9402 16.127H11.1044V21.2698C11.1044 22.2181 10.3841 22.9841 9.49245 22.9841C8.60084 22.9841 8.59692 22.0276 8.59692 21.0794L12.4178 8.38095ZM11.1044 12.6984H15.9402C18.61 12.6984 20.776 10.3948 20.776 7.55556C20.776 4.71627 18.61 2.4127 15.9402 2.4127L15.2835 5.84127L11.1044 12.6984Z" fill="white"/>
<path d="M44.624 6.768L40.736 14.288V18H38V14.288L34.112 6.768H37.216L39.392 11.472L41.552 6.768H44.624ZM54.1424 13.392C54.1424 13.648 54.1264 13.9147 54.0944 14.192H47.9024C47.945 14.7467 48.121 15.1733 48.4304 15.472C48.7504 15.76 49.1397 15.904 49.5984 15.904C50.281 15.904 50.7557 15.616 51.0224 15.04H53.9344C53.785 15.6267 53.513 16.1547 53.1184 16.624C52.7344 17.0933 52.249 17.4613 51.6624 17.728C51.0757 17.9947 50.4197 18.128 49.6944 18.128C48.8197 18.128 48.041 17.9413 47.3584 17.568C46.6757 17.1947 46.1424 16.6613 45.7584 15.968C45.3744 15.2747 45.1824 14.464 45.1824 13.536C45.1824 12.608 45.369 11.7973 45.7424 11.104C46.1264 10.4107 46.6597 9.87733 47.3424 9.504C48.025 9.13067 48.809 8.944 49.6944 8.944C50.5584 8.944 51.3264 9.12533 51.9984 9.488C52.6704 9.85067 53.193 10.368 53.5664 11.04C53.9504 11.712 54.1424 12.496 54.1424 13.392ZM51.3424 12.672C51.3424 12.2027 51.1824 11.8293 50.8624 11.552C50.5424 11.2747 50.1424 11.136 49.6624 11.136C49.2037 11.136 48.8144 11.2693 48.4944 11.536C48.185 11.8027 47.993 12.1813 47.9184 12.672H51.3424ZM58.3218 10.56C58.6418 10.0693 59.0418 9.68533 59.5218 9.408C60.0018 9.12 60.5351 8.976 61.1218 8.976V11.872H60.3698C59.6871 11.872 59.1751 12.0213 58.8338 12.32C58.4924 12.608 58.3218 13.12 58.3218 13.856V18H55.5858V9.072H58.3218V10.56ZM61.8855 13.52C61.8855 12.6027 62.0562 11.7973 62.3975 11.104C62.7495 10.4107 63.2242 9.87733 63.8215 9.504C64.4188 9.13067 65.0855 8.944 65.8215 8.944C66.4508 8.944 67.0002 9.072 67.4695 9.328C67.9495 9.584 68.3175 9.92 68.5735 10.336V9.072H71.3095V18H68.5735V16.736C68.3068 17.152 67.9335 17.488 67.4535 17.744C66.9842 18 66.4348 18.128 65.8055 18.128C65.0802 18.128 64.4188 17.9413 63.8215 17.568C63.2242 17.184 62.7495 16.6453 62.3975 15.952C62.0562 15.248 61.8855 14.4373 61.8855 13.52ZM68.5735 13.536C68.5735 12.8533 68.3815 12.3147 67.9975 11.92C67.6242 11.5253 67.1655 11.328 66.6215 11.328C66.0775 11.328 65.6135 11.5253 65.2295 11.92C64.8562 12.304 64.6695 12.8373 64.6695 13.52C64.6695 14.2027 64.8562 14.7467 65.2295 15.152C65.6135 15.5467 66.0775 15.744 66.6215 15.744C67.1655 15.744 67.6242 15.5467 67.9975 15.152C68.3815 14.7573 68.5735 14.2187 68.5735 13.536ZM81.8489 10.384C81.8489 11.0347 81.6995 11.632 81.4009 12.176C81.1022 12.7093 80.6435 13.1413 80.0249 13.472C79.4062 13.8027 78.6382 13.968 77.7209 13.968H76.0249V18H73.2889V6.768H77.7209C78.6169 6.768 79.3742 6.92267 79.9929 7.232C80.6115 7.54133 81.0755 7.968 81.3849 8.512C81.6942 9.056 81.8489 9.68 81.8489 10.384ZM77.5129 11.792C78.0355 11.792 78.4249 11.6693 78.6809 11.424C78.9369 11.1787 79.0649 10.832 79.0649 10.384C79.0649 9.936 78.9369 9.58933 78.6809 9.344C78.4249 9.09867 78.0355 8.976 77.5129 8.976H76.0249V11.792H77.5129ZM87.3373 18.128C86.4626 18.128 85.6733 17.9413 84.9693 17.568C84.2759 17.1947 83.7266 16.6613 83.3213 15.968C82.9266 15.2747 82.7293 14.464 82.7293 13.536C82.7293 12.6187 82.9319 11.8133 83.3372 11.12C83.7426 10.416 84.2973 9.87733 85.0013 9.504C85.7053 9.13067 86.4946 8.944 87.3693 8.944C88.2439 8.944 89.0333 9.13067 89.7373 9.504C90.4413 9.87733 90.9959 10.416 91.4013 11.12C91.8066 11.8133 92.0093 12.6187 92.0093 13.536C92.0093 14.4533 91.8013 15.264 91.3853 15.968C90.9799 16.6613 90.4199 17.1947 89.7053 17.568C89.0013 17.9413 88.2119 18.128 87.3373 18.128ZM87.3373 15.76C87.8599 15.76 88.3026 15.568 88.6653 15.184C89.0386 14.8 89.2253 14.2507 89.2253 13.536C89.2253 12.8213 89.0439 12.272 88.6813 11.888C88.3293 11.504 87.8919 11.312 87.3693 11.312C86.8359 11.312 86.3933 11.504 86.0413 11.888C85.6893 12.2613 85.5133 12.8107 85.5133 13.536C85.5133 14.2507 85.6839 14.8 86.0253 15.184C86.3773 15.568 86.8146 15.76 87.3373 15.76ZM97.0928 18.128C96.3141 18.128 95.6208 17.9947 95.0128 17.728C94.4048 17.4613 93.9248 17.0987 93.5728 16.64C93.2208 16.1707 93.0234 15.648 92.9808 15.072H95.6848C95.7168 15.3813 95.8608 15.632 96.1168 15.824C96.3728 16.016 96.6874 16.112 97.0608 16.112C97.4021 16.112 97.6634 16.048 97.8448 15.92C98.0368 15.7813 98.1328 15.6053 98.1328 15.392C98.1328 15.136 97.9994 14.9493 97.7328 14.832C97.4661 14.704 97.0341 14.5653 96.4368 14.416C95.7968 14.2667 95.2634 14.112 94.8368 13.952C94.4101 13.7813 94.0421 13.52 93.7328 13.168C93.4234 12.8053 93.2688 12.32 93.2688 11.712C93.2688 11.2 93.4074 10.736 93.6848 10.32C93.9728 9.89333 94.3888 9.55733 94.9328 9.312C95.4874 9.06667 96.1434 8.944 96.9008 8.944C98.0208 8.944 98.9008 9.22133 99.5408 9.776C100.191 10.3307 100.565 11.0667 100.661 11.984H98.1328C98.0901 11.6747 97.9514 11.4293 97.7168 11.248C97.4928 11.0667 97.1941 10.976 96.8208 10.976C96.5008 10.976 96.2554 11.04 96.0848 11.168C95.9141 11.2853 95.8288 11.4507 95.8288 11.664C95.8288 11.92 95.9621 12.112 96.2288 12.24C96.5061 12.368 96.9328 12.496 97.5088 12.624C98.1701 12.7947 98.7088 12.9653 99.1248 13.136C99.5408 13.296 99.9034 13.5627 100.213 13.936C100.533 14.2987 100.698 14.7893 100.709 15.408C100.709 15.9307 100.559 16.4 100.261 16.816C99.9728 17.2213 99.5514 17.5413 98.9968 17.776C98.4528 18.0107 97.8181 18.128 97.0928 18.128Z" fill="white"/>
</svg>
