<svg width="1440" height="273" viewBox="0 0 1440 273" fill="none" xmlns="http://www.w3.org/2000/svg">
<path d="M0 0.636475L48 30.8142C96 60.9919 192 121.347 288 146.527C384 171.329 480 161.899 576 146.527C672 131.721 768 110.974 864 91.1696C960 71.3654 1056 50.6183 1152 50.9012C1248 50.6183 1344 71.3654 1392 81.0789L1440 91.1696V272.236H1392C1344 272.236 1248 272.236 1152 272.236C1056 272.236 960 272.236 864 272.236C768 272.236 672 272.236 576 272.236C480 272.236 384 272.236 288 272.236C192 272.236 96 272.236 48 272.236H0V0.636475Z" fill="#2563EB"/>
</svg>
