<svg width="66" height="56" viewBox="0 0 66 56" fill="none" xmlns="http://www.w3.org/2000/svg">
<path d="M53.7633 17.7817C53.7633 20.7984 53.2908 23.597 52.3458 26.1776C51.3644 28.7218 49.9833 30.9389 48.2024 32.8289C46.4214 34.6825 44.3316 36.1363 41.9327 37.1903C39.4976 38.2444 36.8262 38.7714 33.9185 38.7714C31.0109 38.7714 28.3576 38.2444 25.9588 37.1903C23.5237 36.1363 21.4156 34.6825 19.6347 32.8289C17.8537 30.9389 16.4908 28.7218 15.5458 26.1776C14.5644 23.597 14.0738 20.7984 14.0738 17.7817C14.0738 14.2562 14.6917 11.1123 15.9274 8.35004C17.1632 5.55142 18.9441 3.2253 21.2702 1.37167L27.4853 8.241C26.0315 9.47675 24.923 10.8397 24.1597 12.3299C23.3964 13.7837 23.0148 15.4193 23.0148 17.2366C23.0148 18.7994 23.2692 20.2351 23.7781 21.5435C24.2869 22.852 25.032 23.9787 26.0133 24.9237C26.9583 25.8323 28.1032 26.5592 29.448 27.1044C30.7928 27.6132 32.283 27.8677 33.9185 27.8677C35.5541 27.8677 37.0442 27.6132 38.389 27.1044C39.7338 26.5592 40.8969 25.8323 41.8782 24.9237C42.8232 23.9787 43.5501 22.852 44.059 21.5435C44.5678 20.2351 44.8222 18.7994 44.8222 17.2366C44.8222 15.4193 44.4406 13.7837 43.6773 12.3299C42.9141 10.8397 41.8055 9.47675 40.3517 8.241L46.5668 1.37167C48.8566 3.2253 50.6375 5.55142 51.9096 8.35004C53.1454 11.1123 53.7633 14.2562 53.7633 17.7817Z" fill="#0DCCF2"/>
<path d="M12.3082 56V17.837H21.1947L37.0051 43.7879H32.3165L47.6907 17.837H56.5772L56.6863 56H46.7639L46.6549 32.9387H48.3449L36.8415 52.2382H32.0439L20.2134 32.9387H22.2851V56H12.3082Z" fill="#0DCCF2"/>
<rect x="28.963" y="35.8889" width="9.37037" height="5.96296" fill="#0DCCF2"/>
</svg>